Facade-Medium.ufo
<glyph name="numbersign" format="2">
  <advance width="750.0"/>
  <unicode hex="0023"/>
  <outline>
    <contour>
      <point x="93.0" y="0.0" type="line"/>
      <point x="213.0" y="0.0" type="line"/>
      <point x="250.0" y="222.0" type="line"/>
      <point x="422.0" y="222.0" type="line"/>
      <point x="385.0" y="0.0" type="line"/>
      <point x="505.0" y="0.0" type="line"/>
      <point x="542.0" y="222.0" type="line"/>
      <point x="653.0" y="222.0" type="line"/>
      <point x="671.0" y="330.0" type="line"/>
      <point x="560.0" y="330.0" type="line"/>
      <point x="600.0" y="570.0" type="line"/>
      <point x="707.0" y="570.0" type="line"/>
      <point x="725.0" y="678.0" type="line"/>
      <point x="618.0" y="678.0" type="line"/>
      <point x="655.0" y="900.0" type="line"/>
      <point x="535.0" y="900.0" type="line"/>
      <point x="498.0" y="678.0" type="line"/>
      <point x="326.0" y="678.0" type="line"/>
      <point x="363.0" y="900.0" type="line"/>
      <point x="243.0" y="900.0" type="line"/>
      <point x="206.0" y="678.0" type="line"/>
      <point x="97.0" y="678.0" type="line"/>
      <point x="79.0" y="570.0" type="line"/>
      <point x="188.0" y="570.0" type="line"/>
      <point x="148.0" y="330.0" type="line"/>
      <point x="43.0" y="330.0" type="line"/>
      <point x="25.0" y="222.0" type="line"/>
      <point x="130.0" y="222.0" type="line"/>
    </contour>
    <contour>
      <point x="261.0" y="324.0" type="line"/>
      <point x="303.0" y="576.0" type="line"/>
      <point x="487.0" y="576.0" type="line"/>
      <point x="445.0" y="324.0" type="line"/>
    </contour>
  </outline>
</glyph>
<glyph name="hyphen" format="2">
  <advance width="370.0"/>
  <unicode hex="002D"/>
  <outline>
    <contour>
      <point x="30.0" y="240.0" type="line"/>
      <point x="340.0" y="240.0" type="line"/>
      <point x="340.0" y="360.0" type="line"/>
      <point x="30.0" y="360.0" type="line"/>
    </contour>
  </outline>
</glyph>
<glyph name="period" format="2">
  <advance width="285.0"/>
  <unicode hex="002E"/>
  <outline>
    <contour>
      <point x="142.5" y="-16.0" type="curve" smooth="yes"/>
      <point x="196.0" y="-16.0"/>
      <point x="235.5" y="24.5"/>
      <point x="235.5" y="77.0" type="curve" smooth="yes"/>
      <point x="235.5" y="129.5"/>
      <point x="196.0" y="170.0"/>
      <point x="142.5" y="170.0" type="curve" smooth="yes"/>
      <point x="90.0" y="170.0"/>
      <point x="49.5" y="129.5"/>
      <point x="49.5" y="77.0" type="curve" smooth="yes"/>
      <point x="49.5" y="24.5"/>
      <point x="90.0" y="-16.0"/>
    </contour>
  </outline>
</glyph>
<glyph name="slash" format="2">
  <advance width="500.0"/>
  <unicode hex="002F"/>
  <outline>
    <contour>
      <point x="-82.0" y="-180.0" type="line"/>
      <point x="45.5" y="-180.0" type="line"/>
      <point x="582.0" y="960.0" type="line"/>
      <point x="454.5" y="960.0" type="line"/>
    </contour>
  </outline>
</glyph>
<glyph name="two" format="2">
  <advance width="750.0"/>
  <unicode hex="0032"/>
  <outline>
    <contour>
      <point x="102.5" y="0.0" type="line"/>
      <point x="662.5" y="0.0" type="line"/>
      <point x="662.5" y="132.0" type="line"/>
      <point x="242.5" y="132.0" type="line"/>
      <point x="311.0" y="77.5" type="line"/>
      <point x="580.5" y="463.5" type="line" smooth="yes"/>
      <point x="628.5" y="532.5"/>
      <point x="648.5" y="585.0"/>
      <point x="648.5" y="645.5" type="curve" smooth="yes"/>
      <point x="648.5" y="796.5"/>
      <point x="520.5" y="916.0"/>
      <point x="367.0" y="916.0" type="curve" smooth="yes"/>
      <point x="211.0" y="916.0"/>
      <point x="87.5" y="794.0"/>
      <point x="87.5" y="646.0" type="curve" smooth="yes"/>
      <point x="87.5" y="604.0"/>
      <point x="98.0" y="565.0"/>
      <point x="119.0" y="526.0" type="curve"/>
      <point x="285.5" y="526.0" type="line"/>
      <point x="245.5" y="559.0"/>
      <point x="225.5" y="600.5"/>
      <point x="225.5" y="645.5" type="curve" smooth="yes"/>
      <point x="225.5" y="722.5"/>
      <point x="286.5" y="784.0"/>
      <point x="366.0" y="784.0" type="curve" smooth="yes"/>
      <point x="445.5" y="784.0"/>
      <point x="507.5" y="722.5"/>
      <point x="507.5" y="645.5" type="curve" smooth="yes"/>
      <point x="507.5" y="616.5"/>
      <point x="498.0" y="585.0"/>
      <point x="466.0" y="537.0" type="curve" smooth="yes"/>
    </contour>
  </outline>
</glyph>
<glyph name="nine" format="2">
  <advance width="750.0"/>
  <unicode hex="0039"/>
  <outline>
    <contour>
      <point x="252.0" y="0.0" type="line"/>
      <point x="404.0" y="0.0" type="line"/>
      <point x="645.5" y="464.0" type="line" smooth="yes"/>
      <point x="670.0" y="511.0"/>
      <point x="684.0" y="559.5"/>
      <point x="684.0" y="613.0" type="curve" smooth="yes"/>
      <point x="684.0" y="783.5"/>
      <point x="545.0" y="916.0"/>
      <point x="370.5" y="916.0" type="curve" smooth="yes"/>
      <point x="196.5" y="916.0"/>
      <point x="57.0" y="783.5"/>
      <point x="57.0" y="611.5" type="curve" smooth="yes"/>
      <point x="57.0" y="442.5"/>
      <point x="189.5" y="313.0"/>
      <point x="353.0" y="313.0" type="curve" smooth="yes"/>
      <point x="399.0" y="313.0"/>
      <point x="445.0" y="324.0"/>
      <point x="486.5" y="363.5" type="curve"/>
      <point x="449.0" y="368.5" type="line"/>
    </contour>
    <contour>
      <point x="370.5" y="435.0" type="curve" smooth="yes"/>
      <point x="273.0" y="435.0"/>
      <point x="196.0" y="513.0"/>
      <point x="196.0" y="609.5" type="curve" smooth="yes"/>
      <point x="196.0" y="706.0"/>
      <point x="273.5" y="784.0"/>
      <point x="370.5" y="784.0" type="curve" smooth="yes"/>
      <point x="467.5" y="784.0"/>
      <point x="545.0" y="706.0"/>
      <point x="545.0" y="609.5" type="curve" smooth="yes"/>
      <point x="545.0" y="513.0"/>
      <point x="467.5" y="435.0"/>
    </contour>
  </outline>
</glyph>
<glyph name="greater" format="2">
  <advance width="750.0"/>
  <unicode hex="003E"/>
  <outline>
    <contour>
      <point x="81.0" y="143.0" type="line"/>
      <point x="708.0" y="451.0" type="line"/>
      <point x="81.0" y="759.0" type="line"/>
      <point x="81.0" y="631.5" type="line"/>
      <point x="351.0" y="502.0" type="line" smooth="yes"/>
      <point x="388.0" y="484.0"/>
      <point x="431.0" y="467.0"/>
      <point x="472.0" y="451.0" type="curve"/>
      <point x="431.0" y="434.0"/>
      <point x="388.0" y="417.0"/>
      <point x="351.0" y="399.0" type="curve" smooth="yes"/>
      <point x="81.0" y="268.5" type="line"/>
    </contour>
  </outline>
</glyph>
<glyph name="at" format="2">
  <advance width="1260.0"/>
  <unicode hex="0040"/>
  <outline>
    <contour>
      <point x="649.5" y="-192.0" type="curve" smooth="yes"/>
      <point x="775.5" y="-192.0"/>
      <point x="890.0" y="-154.0"/>
      <point x="984.0" y="-86.0" type="curve"/>
      <point x="954.5" y="27.0" type="line"/>
      <point x="870.0" y="-43.5"/>
      <point x="766.0" y="-81.0"/>
      <point x="651.0" y="-81.0" type="curve" smooth="yes"/>
      <point x="391.5" y="-81.0"/>
      <point x="194.0" y="111.0"/>
      <point x="194.0" y="357.5" type="curve" smooth="yes"/>
      <point x="194.0" y="603.5"/>
      <point x="390.5" y="801.0"/>
      <point x="656.0" y="801.0" type="curve" smooth="yes"/>
      <point x="904.5" y="801.0"/>
      <point x="1078.0" y="628.0"/>
      <point x="1078.0" y="392.0" type="curve" smooth="yes"/>
      <point x="1078.0" y="256.5"/>
      <point x="1028.0" y="175.5"/>
      <point x="963.5" y="175.5" type="curve" smooth="yes"/>
      <point x="926.5" y="175.5"/>
      <point x="894.5" y="200.5"/>
      <point x="894.5" y="257.5" type="curve" smooth="yes"/>
      <point x="894.5" y="630.0" type="line"/>
      <point x="780.5" y="630.0" type="line"/>
      <point x="780.5" y="524.5" type="line"/>
      <point x="804.5" y="552.5" type="line"/>
      <point x="756.0" y="607.5"/>
      <point x="685.0" y="641.0"/>
      <point x="605.0" y="641.0" type="curve" smooth="yes"/>
      <point x="454.5" y="641.0"/>
      <point x="333.5" y="514.5"/>
      <point x="333.5" y="360.0" type="curve" smooth="yes"/>
      <point x="333.5" y="205.5"/>
      <point x="454.5" y="79.0"/>
      <point x="605.0" y="79.0" type="curve" smooth="yes"/>
      <point x="696.5" y="79.0"/>
      <point x="776.0" y="124.0"/>
      <point x="825.0" y="192.5" type="curve"/>
      <point x="794.5" y="197.0" type="line"/>
      <point x="809.5" y="128.5"/>
      <point x="874.0" y="79.0"/>
      <point x="955.5" y="79.0" type="curve" smooth="yes"/>
      <point x="1076.5" y="79.0"/>
      <point x="1199.0" y="191.5"/>
      <point x="1199.0" y="403.0" type="curve" smooth="yes"/>
      <point x="1199.0" y="693.5"/>
      <point x="957.0" y="912.0"/>
      <point x="652.5" y="912.0" type="curve" smooth="yes"/>
      <point x="329.0" y="912.0"/>
      <point x="73.0" y="664.0"/>
      <point x="73.0" y="355.5" type="curve" smooth="yes"/>
      <point x="73.0" y="50.0"/>
      <point x="329.0" y="-192.0"/>
    </contour>
    <contour>
      <point x="624.0" y="193.0" type="curve" smooth="yes"/>
      <point x="533.5" y="193.0"/>
      <point x="461.5" y="267.5"/>
      <point x="461.5" y="360.0" type="curve" smooth="yes"/>
      <point x="461.5" y="452.5"/>
      <point x="533.5" y="527.0"/>
      <point x="624.0" y="527.0" type="curve" smooth="yes"/>
      <point x="714.5" y="527.0"/>
      <point x="786.5" y="452.5"/>
      <point x="786.5" y="360.0" type="curve" smooth="yes"/>
      <point x="786.5" y="267.5"/>
      <point x="714.5" y="193.0"/>
    </contour>
  </outline>
</glyph>
<glyph name="A" format="2">
  <advance width="810.0"/>
  <unicode hex="0041"/>
  <anchor x="405.0" y="0.0" name="bottom"/>
  <anchor x="675.5" y="0.0" name="ogonek"/>
  <anchor x="405.0" y="900.0" name="top"/>
  <anchor x="125.0" y="720.0" name="top-vertical"/>
  <outline>
    <contour>
      <point x="15.0" y="0.0" type="line"/>
      <point x="160.0" y="0.0" type="line"/>
      <point x="351.0" y="468.0" type="line"/>
      <point x="370.5" y="515.5"/>
      <point x="386.0" y="556.0"/>
      <point x="401.5" y="617.0" type="curve"/>
      <point x="417.5" y="555.5"/>
      <point x="434.0" y="515.0"/>
      <point x="453.5" y="468.0" type="curve"/>
      <point x="644.0" y="0.0" type="line"/>
      <point x="795.0" y="0.0" type="line"/>
      <point x="406.0" y="931.0" type="line"/>
      <point x="404.0" y="931.0" type="line"/>
    </contour>
    <contour>
      <point x="199.5" y="213.5" type="line"/>
      <point x="604.5" y="213.5" type="line"/>
      <point x="561.0" y="333.0" type="line"/>
      <point x="244.5" y="333.0" type="line"/>
    </contour>
  </outline>
</glyph>
<glyph name="G" format="2">
  <advance width="930.0"/>
  <unicode hex="0047"/>
  <anchor x="529.0" y="0.0" name="bottom"/>
  <anchor x="783.0" y="270.0" name="center"/>
  <anchor x="530.0" y="900.0" name="top"/>
  <outline>
    <contour>
      <point x="534.5" y="-18.0" type="curve" smooth="yes"/>
      <point x="649.0" y="-18.0"/>
      <point x="756.5" y="15.0"/>
      <point x="839.0" y="75.5" type="curve"/>
      <point x="839.0" y="492.0" type="line"/>
      <point x="486.5" y="492.0" type="line"/>
      <point x="486.5" y="366.0" type="line"/>
      <point x="702.0" y="366.0" type="line"/>
      <point x="702.0" y="161.0" type="line"/>
      <point x="655.0" y="134.0"/>
      <point x="598.0" y="119.0"/>
      <point x="533.0" y="119.0" type="curve" smooth="yes"/>
      <point x="349.0" y="119.0"/>
      <point x="210.0" y="263.0"/>
      <point x="210.0" y="449.0" type="curve" smooth="yes"/>
      <point x="210.0" y="634.5"/>
      <point x="350.0" y="779.0"/>
      <point x="534.0" y="779.0" type="curve" smooth="yes"/>
      <point x="657.5" y="779.0"/>
      <point x="756.5" y="714.5"/>
      <point x="813.0" y="624.0" type="curve"/>
      <point x="855.0" y="796.0" type="line"/>
      <point x="771.0" y="872.0"/>
      <point x="659.5" y="918.0"/>
      <point x="534.0" y="918.0" type="curve" smooth="yes"/>
      <point x="268.0" y="918.0"/>
      <point x="57.0" y="712.0"/>
      <point x="57.0" y="449.0" type="curve" smooth="yes"/>
      <point x="57.0" y="185.5"/>
      <point x="267.5" y="-18.0"/>
    </contour>
  </outline>
</glyph>
<glyph name="H" format="2">
  <advance width="800.0"/>
  <unicode hex="0048"/>
  <anchor x="400.0" y="0.0" name="bottom"/>
  <anchor x="400.0" y="750.0" name="center"/>
  <anchor x="400.0" y="900.0" name="top"/>
  <anchor x="126.0" y="900.0" name="topleft"/>
  <outline>
    <contour>
      <point x="111.0" y="0.0" type="line"/>
      <point x="255.0" y="0.0" type="line"/>
      <point x="255.0" y="477.0" type="line"/>
      <point x="545.0" y="477.0" type="line"/>
      <point x="545.0" y="0.0" type="line"/>
      <point x="689.0" y="0.0" type="line"/>
      <point x="689.0" y="900.0" type="line"/>
      <point x="545.0" y="900.0" type="line"/>
      <point x="545.0" y="609.0" type="line"/>
      <point x="255.0" y="609.0" type="line"/>
      <point x="255.0" y="900.0" type="line"/>
      <point x="111.0" y="900.0" type="line"/>
    </contour>
  </outline>
</glyph>
<glyph name="J" format="2">
  <advance width="550.0"/>
  <unicode hex="004A"/>
  <anchor x="160.5" y="0.0" name="bottom"/>
  <anchor x="379.5" y="900.0" name="top"/>
  <outline>
    <contour>
      <point x="193.5" y="-16.0" type="curve" smooth="yes"/>
      <point x="330.0" y="-16.0"/>
      <point x="454.0" y="68.5"/>
      <point x="454.0" y="258.5" type="curve" smooth="yes"/>
      <point x="454.0" y="900.0" type="line"/>
      <point x="304.0" y="900.0" type="line"/>
      <point x="304.0" y="269.5" type="line" smooth="yes"/>
      <point x="304.0" y="159.5"/>
      <point x="249.5" y="119.0"/>
      <point x="183.5" y="119.0" type="curve" smooth="yes"/>
      <point x="126.5" y="119.0"/>
      <point x="80.0" y="148.0"/>
      <point x="52.0" y="194.0" type="curve"/>
      <point x="12.0" y="50.0" type="line"/>
      <point x="57.0" y="3.5"/>
      <point x="126.5" y="-16.0"/>
    </contour>
  </outline>
</glyph>
<glyph name="K" format="2">
  <advance width="790.0"/>
  <unicode hex="004B"/>
  <anchor x="438.0" y="0.0" name="bottom"/>
  <anchor x="400.0" y="900.0" name="top"/>
  <outline>
    <contour>
      <point x="615.0" y="0.0" type="line"/>
      <point x="790.0" y="0.0" type="line"/>
      <point x="403.5" y="597.0" type="line"/>
      <point x="396.5" y="516.0" type="line"/>
      <point x="708.0" y="900.0" type="line"/>
      <point x="538.0" y="900.0" type="line"/>
      <point x="259.5" y="555.0" type="line"/>
    </contour>
    <contour>
      <point x="111.0" y="0.0" type="line"/>
      <point x="258.0" y="0.0" type="line"/>
      <point x="258.0" y="900.0" type="line"/>
      <point x="111.0" y="900.0" type="line"/>
    </contour>
  </outline>
</glyph>
<glyph name="O" format="2">
  <advance width="1060.0"/>
  <unicode hex="004F"/>
  <anchor x="530.0" y="0.0" name="bottom"/>
  <anchor x="530.0" y="450.0" name="center"/>
  <anchor x="560.0" y="0.0" name="ogonek"/>
  <anchor x="530.0" y="900.0" name="top"/>
  <anchor x="530.0" y="495.0" name="top-vertical"/>
  <anchor x="60.0" y="900.0" name="topleft"/>
  <anchor x="1000.0" y="900.0" name="topright"/>
  <outline>
    <contour>
      <point x="530.0" y="-18.0" type="curve" smooth="yes"/>
      <point x="791.5" y="-18.0"/>
      <point x="1003.0" y="191.0"/>
      <point x="1003.0" y="450.0" type="curve" smooth="yes"/>
      <point x="1003.0" y="709.0"/>
      <point x="791.5" y="918.0"/>
      <point x="530.0" y="918.0" type="curve" smooth="yes"/>
      <point x="268.5" y="918.0"/>
      <point x="57.0" y="709.0"/>
      <point x="57.0" y="450.0" type="curve" smooth="yes"/>
      <point x="57.0" y="191.0"/>
      <point x="268.5" y="-18.0"/>
    </contour>
    <contour>
      <point x="530.0" y="123.0" type="curve" smooth="yes"/>
      <point x="350.0" y="123.0"/>
      <point x="210.0" y="269.0"/>
      <point x="210.0" y="450.0" type="curve" smooth="yes"/>
      <point x="210.0" y="631.0"/>
      <point x="350.0" y="777.0"/>
      <point x="530.0" y="777.0" type="curve" smooth="yes"/>
      <point x="710.0" y="777.0"/>
      <point x="850.0" y="631.0"/>
      <point x="850.0" y="450.0" type="curve" smooth="yes"/>
      <point x="850.0" y="269.0"/>
      <point x="710.0" y="123.0"/>
    </contour>
  </outline>
</glyph>
<glyph name="Q" format="2">
  <advance width="1060.0"/>
  <unicode hex="0051"/>
  <outline>
    <contour>
      <point x="530.0" y="-18.0" type="curve" smooth="yes"/>
      <point x="791.5" y="-18.0"/>
      <point x="1003.0" y="191.0"/>
      <point x="1003.0" y="450.0" type="curve" smooth="yes"/>
      <point x="1003.0" y="709.0"/>
      <point x="791.5" y="918.0"/>
      <point x="530.0" y="918.0" type="curve" smooth="yes"/>
      <point x="268.5" y="918.0"/>
      <point x="57.0" y="709.0"/>
      <point x="57.0" y="450.0" type="curve" smooth="yes"/>
      <point x="57.0" y="191.0"/>
      <point x="268.5" y="-18.0"/>
    </contour>
    <contour>
      <point x="530.0" y="123.0" type="curve" smooth="yes"/>
      <point x="350.0" y="123.0"/>
      <point x="210.0" y="269.0"/>
      <point x="210.0" y="450.0" type="curve" smooth="yes"/>
      <point x="210.0" y="631.0"/>
      <point x="350.0" y="777.0"/>
      <point x="530.0" y="777.0" type="curve" smooth="yes"/>
      <point x="710.0" y="777.0"/>
      <point x="850.0" y="631.0"/>
      <point x="850.0" y="450.0" type="curve" smooth="yes"/>
      <point x="850.0" y="269.0"/>
      <point x="710.0" y="123.0"/>
    </contour>
    <contour>
      <point x="842.0" y="-30.0" type="line"/>
      <point x="1008.0" y="-30.0" type="line"/>
      <point x="609.0" y="450.0" type="line"/>
      <point x="442.0" y="450.0" type="line"/>
      <point x="724.0" y="111.0" type="line"/>
      <point x="730.0" y="105.0" type="line"/>
    </contour>
  </outline>
</glyph>
<glyph name="R" format="2">
  <advance width="790.0"/>
  <unicode hex="0052"/>
  <anchor x="439.0" y="0.0" name="bottom"/>
  <anchor x="325.0" y="900.0" name="top"/>
  <outline>
    <contour>
      <point x="114.0" y="0.0" type="line"/>
      <point x="258.0" y="0.0" type="line"/>
      <point x="258.0" y="900.0" type="line"/>
      <point x="114.0" y="900.0" type="line"/>
    </contour>
    <contour>
      <point x="186.0" y="378.0" type="line"/>
      <point x="364.5" y="378.0" type="line" smooth="yes"/>
      <point x="541.0" y="378.0"/>
      <point x="657.0" y="490.5"/>
      <point x="657.0" y="635.5" type="curve" smooth="yes"/>
      <point x="657.0" y="778.0"/>
      <point x="547.0" y="900.0"/>
      <point x="364.5" y="900.0" type="curve" smooth="yes"/>
      <point x="186.0" y="900.0" type="line"/>
      <point x="186.0" y="768.0" type="line"/>
      <point x="362.5" y="768.0" type="line" smooth="yes"/>
      <point x="454.5" y="768.0"/>
      <point x="516.0" y="713.0"/>
      <point x="516.0" y="635.5" type="curve" smooth="yes"/>
      <point x="516.0" y="570.5"/>
      <point x="469.0" y="501.0"/>
      <point x="362.5" y="501.0" type="curve" smooth="yes"/>
      <point x="186.0" y="501.0" type="line"/>
    </contour>
    <contour>
      <point x="625.0" y="0.0" type="line"/>
      <point x="790.0" y="0.0" type="line"/>
      <point x="493.0" y="456.0" type="line"/>
      <point x="333.0" y="456.0" type="line"/>
    </contour>
  </outline>
</glyph>
<glyph name="S" format="2">
  <advance width="660.0"/>
  <unicode hex="0053"/>
  <anchor x="319.5" y="0.0" name="bottom"/>
  <anchor x="340.5" y="900.0" name="top"/>
  <outline>
    <contour>
      <point x="323.5" y="-16.0" type="curve" smooth="yes"/>
      <point x="494.5" y="-16.0"/>
      <point x="610.5" y="99.5"/>
      <point x="610.5" y="254.5" type="curve" smooth="yes"/>
      <point x="610.5" y="413.5"/>
      <point x="488.0" y="480.0"/>
      <point x="425.5" y="511.0" type="curve" smooth="yes"/>
      <point x="316.0" y="565.5" type="line" smooth="yes"/>
      <point x="273.5" y="586.5"/>
      <point x="222.5" y="617.5"/>
      <point x="222.5" y="681.0" type="curve" smooth="yes"/>
      <point x="222.5" y="740.0"/>
      <point x="266.5" y="786.0"/>
      <point x="339.5" y="786.0" type="curve" smooth="yes"/>
      <point x="417.0" y="786.0"/>
      <point x="491.5" y="733.0"/>
      <point x="535.0" y="670.5" type="curve"/>
      <point x="574.5" y="837.0" type="line"/>
      <point x="528.0" y="874.5"/>
      <point x="447.0" y="916.0"/>
      <point x="346.0" y="916.0" type="curve" smooth="yes"/>
      <point x="187.0" y="916.0"/>
      <point x="81.5" y="815.5"/>
      <point x="81.5" y="672.0" type="curve" smooth="yes"/>
      <point x="81.5" y="532.5"/>
      <point x="180.5" y="473.0"/>
      <point x="253.5" y="436.5" type="curve" smooth="yes"/>
      <point x="361.5" y="382.0" type="line" smooth="yes"/>
      <point x="395.5" y="365.0"/>
      <point x="469.5" y="327.5"/>
      <point x="469.5" y="245.5" type="curve" smooth="yes"/>
      <point x="469.5" y="172.5"/>
      <point x="412.5" y="116.0"/>
      <point x="328.5" y="116.0" type="curve" smooth="yes"/>
      <point x="232.0" y="116.0"/>
      <point x="146.5" y="181.5"/>
      <point x="104.5" y="260.0" type="curve"/>
      <point x="63.5" y="91.0" type="line"/>
      <point x="118.5" y="31.5"/>
      <point x="215.0" y="-16.0"/>
    </contour>
  </outline>
</glyph>
<glyph name="U" format="2">
  <advance width="800.0"/>
  <unicode hex="0055"/>
  <anchor x="400.0" y="0.0" name="bottom"/>
  <anchor x="430.0" y="0.0" name="ogonek"/>
  <anchor x="400.0" y="900.0" name="top"/>
  <anchor x="400.0" y="720.0" name="top-vertical"/>
  <anchor x="635.0" y="900.0" name="topright"/>
  <outline>
    <contour>
      <point x="400.0" y="-16.5" type="curve" smooth="yes"/>
      <point x="582.0" y="-16.5"/>
      <point x="710.0" y="105.5"/>
      <point x="710.0" y="296.5" type="curve" smooth="yes"/>
      <point x="710.0" y="900.0" type="line"/>
      <point x="565.0" y="900.0" type="line"/>
      <point x="565.0" y="294.5" type="line" smooth="yes"/>
      <point x="565.0" y="190.5"/>
      <point x="496.0" y="121.5"/>
      <point x="402.5" y="121.5" type="curve" smooth="yes"/>
      <point x="308.0" y="121.5"/>
      <point x="240.0" y="191.5"/>
      <point x="240.0" y="299.5" type="curve" smooth="yes"/>
      <point x="240.0" y="900.0" type="line"/>
      <point x="90.0" y="900.0" type="line"/>
      <point x="90.0" y="293.0" type="line" smooth="yes"/>
      <point x="90.0" y="105.0"/>
      <point x="220.0" y="-16.5"/>
    </contour>
  </outline>
</glyph>
<glyph name="V" format="2">
  <advance width="760.0"/>
  <unicode hex="0056"/>
  <outline>
    <contour>
      <point x="379.0" y="-30.0" type="line"/>
      <point x="381.0" y="-30.0" type="line"/>
      <point x="751.0" y="900.0" type="line"/>
      <point x="604.0" y="900.0" type="line"/>
      <point x="425.0" y="444.0" type="line" smooth="yes"/>
      <point x="402.5" y="386.5"/>
      <point x="386.5" y="346.5"/>
      <point x="368.5" y="263.5" type="curve"/>
      <point x="401.5" y="263.5" type="line"/>
      <point x="382.5" y="347.0"/>
      <point x="364.5" y="389.5"/>
      <point x="343.5" y="444.0" type="curve" smooth="yes"/>
      <point x="164.0" y="900.0" type="line"/>
      <point x="9.0" y="900.0" type="line"/>
    </contour>
  </outline>
</glyph>
<glyph name="X" format="2">
  <advance width="870.0"/>
  <unicode hex="0058"/>
  <outline>
    <contour>
      <point x="6.0" y="0.0" type="line"/>
      <point x="174.0" y="0.0" type="line"/>
      <point x="355.5" y="285.0" type="line" smooth="yes"/>
      <point x="389.0" y="337.5"/>
      <point x="421.5" y="391.0"/>
      <point x="464.5" y="480.0" type="curve"/>
      <point x="403.5" y="480.0" type="line"/>
      <point x="447.0" y="391.0"/>
      <point x="479.0" y="337.5"/>
      <point x="512.5" y="285.0" type="curve" smooth="yes"/>
      <point x="693.0" y="0.0" type="line"/>
      <point x="867.0" y="0.0" type="line"/>
      <point x="532.5" y="524.0" type="line"/>
      <point x="777.0" y="900.0" type="line"/>
      <point x="614.5" y="900.0" type="line"/>
      <point x="513.0" y="747.0" type="line" smooth="yes"/>
      <point x="481.5" y="699.5"/>
      <point x="453.0" y="650.0"/>
      <point x="418.5" y="572.5" type="curve"/>
      <point x="458.0" y="572.5" type="line"/>
      <point x="423.5" y="650.0"/>
      <point x="394.0" y="699.0"/>
      <point x="363.5" y="746.5" type="curve" smooth="yes"/>
      <point x="263.5" y="900.0" type="line"/>
      <point x="93.0" y="900.0" type="line"/>
      <point x="339.0" y="519.5" type="line"/>
    </contour>
  </outline>
</glyph>
<glyph name="Y" format="2">
  <advance width="700.0"/>
  <unicode hex="0059"/>
  <anchor x="351.0" y="0.0" name="bottom"/>
  <anchor x="351.0" y="900.0" name="top"/>
  <anchor x="28.0" y="900.0" name="topleft"/>
  <outline>
    <contour>
      <point x="276.5" y="0.0" type="line"/>
      <point x="423.5" y="0.0" type="line"/>
      <point x="423.5" y="430.5" type="line"/>
      <point x="688.0" y="900.0" type="line"/>
      <point x="533.0" y="900.5" type="line"/>
      <point x="405.0" y="668.0" type="line" smooth="yes"/>
      <point x="381.0" y="624.5"/>
      <point x="360.5" y="587.0"/>
      <point x="336.5" y="514.5" type="curve"/>
      <point x="373.0" y="514.0" type="line"/>
      <point x="351.0" y="586.0"/>
      <point x="329.0" y="625.5"/>
      <point x="306.0" y="668.0" type="curve" smooth="yes"/>
      <point x="179.0" y="900.0" type="line"/>
      <point x="12.0" y="900.0" type="line"/>
      <point x="276.5" y="430.5" type="line"/>
    </contour>
  </outline>
</glyph>
<glyph name="Z" format="2">
  <advance width="670.0"/>
  <unicode hex="005A"/>
  <anchor x="319.5" y="0.0" name="bottom"/>
  <anchor x="328.5" y="450.0" name="center"/>
  <anchor x="349.5" y="900.0" name="top"/>
  <outline>
    <contour>
      <point x="30.0" y="0.0" type="line"/>
      <point x="608.5" y="0.0" type="line"/>
      <point x="608.5" y="132.0" type="line"/>
      <point x="176.5" y="132.0" type="line"/>
      <point x="209.0" y="56.0" type="line"/>
      <point x="628.0" y="900.0" type="line"/>
      <point x="73.5" y="900.0" type="line"/>
      <point x="73.5" y="768.0" type="line"/>
      <point x="475.5" y="768.0" type="line"/>
      <point x="449.0" y="844.0" type="line"/>
    </contour>
  </outline>
</glyph>
<glyph name="bracketleft" format="2">
  <advance width="480.0"/>
  <unicode hex="005B"/>
  <outline>
    <contour>
      <point x="105.0" y="-180.0" type="line"/>
      <point x="420.0" y="-180.0" type="line"/>
      <point x="420.0" y="-69.0" type="line"/>
      <point x="231.0" y="-69.0" type="line"/>
      <point x="231.0" y="849.0" type="line"/>
      <point x="420.0" y="849.0" type="line"/>
      <point x="420.0" y="960.0" type="line"/>
      <point x="105.0" y="960.0" type="line"/>
    </contour>
  </outline>
</glyph>
<glyph name="b" format="2">
  <advance width="750.0"/>
  <unicode hex="0062"/>
  <anchor x="384.0" y="0.0" name="bottom"/>
  <anchor x="384.0" y="914.0" name="top"/>
  <outline>
    <contour>
      <point x="405.0" y="-12.0" type="curve" smooth="yes"/>
      <point x="571.0" y="-12.0"/>
      <point x="705.0" y="128.0"/>
      <point x="705.0" y="300.0" type="curve" smooth="yes"/>
      <point x="705.0" y="472.0"/>
      <point x="571.0" y="612.0"/>
      <point x="405.0" y="612.0" type="curve" smooth="yes"/>
      <point x="300.0" y="612.0"/>
      <point x="212.5" y="558.0"/>
      <point x="165.0" y="478.0" type="curve"/>
      <point x="222.0" y="451.5" type="line"/>
      <point x="222.0" y="960.0" type="line"/>
      <point x="81.0" y="960.0" type="line"/>
      <point x="81.0" y="0.0" type="line"/>
      <point x="206.0" y="0.0" type="line"/>
      <point x="206.0" y="150.0" type="line"/>
      <point x="165.0" y="122.5" type="line"/>
      <point x="213.0" y="41.5"/>
      <point x="300.0" y="-12.0"/>
    </contour>
    <contour>
      <point x="388.0" y="113.5" type="curve" smooth="yes"/>
      <point x="287.0" y="113.5"/>
      <point x="206.0" y="197.0"/>
      <point x="206.0" y="300.0" type="curve" smooth="yes"/>
      <point x="206.0" y="403.0"/>
      <point x="287.0" y="486.5"/>
      <point x="388.0" y="486.5" type="curve" smooth="yes"/>
      <point x="489.0" y="486.5"/>
      <point x="570.0" y="403.0"/>
      <point x="570.0" y="300.0" type="curve" smooth="yes"/>
      <point x="570.0" y="197.0"/>
      <point x="489.0" y="113.5"/>
    </contour>
  </outline>
</glyph>
<glyph name="e" format="2">
  <advance width="700.0"/>
  <unicode hex="0065"/>
  <anchor x="355.0" y="0.0" name="bottom"/>
  <anchor x="495.0" y="0.0" name="ogonek"/>
  <anchor x="355.0" y="600.0" name="top"/>
  <outline>
    <contour>
      <point x="379.5" y="-16.0" type="curve" smooth="yes"/>
      <point x="461.0" y="-16.0"/>
      <point x="538.0" y="9.0"/>
      <point x="597.0" y="55.0" type="curve"/>
      <point x="563.0" y="194.5" type="line"/>
      <point x="523.5" y="143.5"/>
      <point x="458.0" y="107.0"/>
      <point x="382.0" y="107.0" type="curve" smooth="yes"/>
      <point x="262.5" y="107.0"/>
      <point x="179.0" y="192.5"/>
      <point x="179.0" y="304.0" type="curve"/>
      <point x="171.5" y="304.0" type="line"/>
      <point x="171.5" y="414.0"/>
      <point x="250.5" y="499.0"/>
      <point x="353.5" y="499.0" type="curve" smooth="yes"/>
      <point x="456.5" y="499.0"/>
      <point x="534.5" y="419.0"/>
      <point x="534.5" y="307.0" type="curve"/>
      <point x="560.0" y="353.5" type="line"/>
      <point x="520.0" y="363.0"/>
      <point x="480.0" y="367.5"/>
      <point x="434.5" y="367.5" type="curve" smooth="yes"/>
      <point x="282.0" y="367.5" type="line" smooth="yes"/>
      <point x="230.0" y="367.5"/>
      <point x="180.0" y="359.5"/>
      <point x="128.0" y="347.5" type="curve"/>
      <point x="128.0" y="279.5" type="line"/>
      <point x="180.0" y="267.5"/>
      <point x="230.0" y="259.5"/>
      <point x="282.0" y="259.5" type="curve" smooth="yes"/>
      <point x="661.0" y="259.5" type="line"/>
      <point x="661.0" y="312.0" type="line" smooth="yes"/>
      <point x="661.0" y="485.0"/>
      <point x="526.0" y="616.0"/>
      <point x="354.5" y="616.0" type="curve" smooth="yes"/>
      <point x="182.5" y="616.0"/>
      <point x="45.0" y="481.5"/>
      <point x="45.0" y="306.0" type="curve" smooth="yes"/>
      <point x="45.0" y="121.5"/>
      <point x="183.5" y="-16.0"/>
    </contour>
  </outline>
</glyph>
<glyph name="g" format="2">
  <advance width="750.0"/>
  <unicode hex="0067"/>
  <anchor x="381.0" y="-360.0" name="bottom"/>
  <anchor x="606.5" y="300.0" name="center"/>
  <anchor x="381.0" y="600.0" name="top"/>
  <outline>
    <contour>
      <point x="333.5" y="-316.0" type="curve" smooth="yes"/>
      <point x="511.0" y="-316.0"/>
      <point x="669.0" y="-201.0"/>
      <point x="669.0" y="-4.0" type="curve" smooth="yes"/>
      <point x="669.0" y="600.0" type="line"/>
      <point x="544.0" y="600.0" type="line"/>
      <point x="544.0" y="450.0" type="line"/>
      <point x="584.0" y="477.5" type="line"/>
      <point x="536.0" y="558.5"/>
      <point x="449.5" y="612.0"/>
      <point x="344.5" y="612.0" type="curve" smooth="yes"/>
      <point x="179.0" y="612.0"/>
      <point x="45.0" y="472.0"/>
      <point x="45.0" y="300.0" type="curve" smooth="yes"/>
      <point x="45.0" y="128.0"/>
      <point x="179.0" y="-12.0"/>
      <point x="344.5" y="-12.0" type="curve" smooth="yes"/>
      <point x="449.5" y="-12.0"/>
      <point x="536.0" y="41.5"/>
      <point x="584.0" y="122.5" type="curve"/>
      <point x="543.0" y="148.5" type="line"/>
      <point x="543.0" y="11.5" type="line" smooth="yes"/>
      <point x="543.0" y="-107.5"/>
      <point x="461.5" y="-191.0"/>
      <point x="333.0" y="-191.0" type="curve" smooth="yes"/>
      <point x="246.0" y="-191.0"/>
      <point x="176.5" y="-151.0"/>
      <point x="135.0" y="-93.5" type="curve"/>
      <point x="99.0" y="-240.5" type="line"/>
      <point x="158.5" y="-287.5"/>
      <point x="240.5" y="-316.0"/>
    </contour>
    <contour>
      <point x="362.0" y="113.5" type="curve" smooth="yes"/>
      <point x="261.0" y="113.5"/>
      <point x="180.0" y="197.0"/>
      <point x="180.0" y="300.0" type="curve" smooth="yes"/>
      <point x="180.0" y="403.0"/>
      <point x="261.0" y="486.5"/>
      <point x="362.0" y="486.5" type="curve" smooth="yes"/>
      <point x="463.0" y="486.5"/>
      <point x="544.0" y="403.0"/>
      <point x="544.0" y="300.0" type="curve" smooth="yes"/>
      <point x="544.0" y="197.0"/>
      <point x="463.0" y="113.5"/>
    </contour>
  </outline>
</glyph>
<glyph name="k" format="2">
  <advance width="650.0"/>
  <unicode hex="006B"/>
  <anchor x="330.0" y="0.0" name="bottom"/>
  <anchor x="150.0" y="960.0" name="top"/>
  <outline>
    <contour>
      <point x="476.0" y="0.0" type="line"/>
      <point x="647.0" y="0.0" type="line"/>
      <point x="357.5" y="370.5" type="line"/>
      <point x="344.5" y="296.0" type="line"/>
      <point x="587.0" y="600.0" type="line"/>
      <point x="431.0" y="600.0" type="line"/>
      <point x="221.0" y="330.0" type="line"/>
    </contour>
    <contour>
      <point x="81.0" y="0.0" type="line"/>
      <point x="222.0" y="0.0" type="line"/>
      <point x="222.0" y="960.0" type="line"/>
      <point x="81.0" y="960.0" type="line"/>
    </contour>
  </outline>
</glyph>
<glyph name="n" format="2">
  <advance width="710.0"/>
  <unicode hex="006E"/>
  <anchor x="355.0" y="0.0" name="bottom"/>
  <anchor x="355.0" y="600.0" name="top"/>
  <outline>
    <contour>
      <point x="500.0" y="0.0" type="line"/>
      <point x="641.0" y="0.0" type="line"/>
      <point x="641.0" y="352.0" type="line" smooth="yes"/>
      <point x="641.0" y="519.5"/>
      <point x="525.5" y="616.0"/>
      <point x="398.5" y="616.0" type="curve" smooth="yes"/>
      <point x="270.0" y="616.0"/>
      <point x="161.0" y="520.5"/>
      <point x="161.0" y="348.0" type="curve"/>
      <point x="222.0" y="335.5" type="line"/>
      <point x="222.0" y="436.5"/>
      <point x="289.0" y="487.0"/>
      <point x="361.0" y="487.0" type="curve" smooth="yes"/>
      <point x="449.5" y="487.0"/>
      <point x="500.0" y="414.0"/>
      <point x="500.0" y="333.0" type="curve" smooth="yes"/>
    </contour>
    <contour>
      <point x="81.0" y="0.0" type="line"/>
      <point x="222.0" y="0.0" type="line"/>
      <point x="222.0" y="424.5" type="line"/>
      <point x="209.0" y="451.0" type="line"/>
      <point x="209.0" y="600.0" type="line"/>
      <point x="81.0" y="600.0" type="line"/>
    </contour>
  </outline>
</glyph>
<glyph name="p" format="2">
  <advance width="750.0"/>
  <unicode hex="0070"/>
  <anchor x="390.0" y="0.0" name="bottom"/>
  <anchor x="390.0" y="600.0" name="top"/>
  <outline>
    <contour>
      <point x="81.0" y="-300.0" type="line"/>
      <point x="222.0" y="-300.0" type="line"/>
      <point x="222.0" y="148.5" type="line"/>
      <point x="165.0" y="122.0" type="line"/>
      <point x="212.5" y="42.0"/>
      <point x="300.0" y="-12.0"/>
      <point x="405.0" y="-12.0" type="curve" smooth="yes"/>
      <point x="571.0" y="-12.0"/>
      <point x="705.0" y="128.0"/>
      <point x="705.0" y="300.0" type="curve" smooth="yes"/>
      <point x="705.0" y="472.0"/>
      <point x="571.0" y="612.0"/>
      <point x="405.0" y="612.0" type="curve" smooth="yes"/>
      <point x="300.0" y="612.0"/>
      <point x="213.0" y="558.5"/>
      <point x="165.0" y="477.5" type="curve"/>
      <point x="206.0" y="450.0" type="line"/>
      <point x="206.0" y="600.0" type="line"/>
      <point x="81.0" y="600.0" type="line"/>
    </contour>
    <contour>
      <point x="388.0" y="113.5" type="curve" smooth="yes"/>
      <point x="287.0" y="113.5"/>
      <point x="206.0" y="197.0"/>
      <point x="206.0" y="300.0" type="curve" smooth="yes"/>
      <point x="206.0" y="403.0"/>
      <point x="287.0" y="486.5"/>
      <point x="388.0" y="486.5" type="curve" smooth="yes"/>
      <point x="489.0" y="486.5"/>
      <point x="570.0" y="403.0"/>
      <point x="570.0" y="300.0" type="curve" smooth="yes"/>
      <point x="570.0" y="197.0"/>
      <point x="489.0" y="113.5"/>
    </contour>
  </outline>
</glyph>
<glyph name="r" format="2">
  <advance width="455.0"/>
  <unicode hex="0072"/>
  <anchor x="150.0" y="0.0" name="bottom"/>
  <anchor x="252.0" y="600.0" name="top"/>
  <outline>
    <contour>
      <point x="81.0" y="0.0" type="line"/>
      <point x="222.0" y="0.0" type="line"/>
      <point x="222.0" y="438.0" type="line"/>
      <point x="209.0" y="461.0" type="line"/>
      <point x="209.0" y="600.0" type="line"/>
      <point x="81.0" y="600.0" type="line"/>
    </contour>
    <contour>
      <point x="158.5" y="284.5" type="curve"/>
      <point x="222.0" y="284.5" type="line"/>
      <point x="222.0" y="410.5"/>
      <point x="292.5" y="481.0"/>
      <point x="398.5" y="481.0" type="curve" smooth="yes"/>
      <point x="413.0" y="481.0"/>
      <point x="429.0" y="479.0"/>
      <point x="442.0" y="475.0" type="curve"/>
      <point x="409.5" y="606.0" type="line"/>
      <point x="246.5" y="606.0"/>
      <point x="158.5" y="468.0"/>
    </contour>
  </outline>
</glyph>
<glyph name="u" format="2">
  <advance width="710.0"/>
  <unicode hex="0075"/>
  <anchor x="354.0" y="0.0" name="bottom"/>
  <anchor x="568.0" y="0.0" name="ogonek"/>
  <anchor x="354.0" y="600.0" name="top"/>
  <anchor x="564.0" y="600.0" name="topright"/>
  <outline>
    <contour>
      <point x="311.5" y="-16.0" type="curve" smooth="yes"/>
      <point x="440.0" y="-16.0"/>
      <point x="549.0" y="79.5"/>
      <point x="549.0" y="252.0" type="curve"/>
      <point x="488.0" y="264.5" type="line"/>
      <point x="488.0" y="166.0"/>
      <point x="421.0" y="113.0"/>
      <point x="349.0" y="113.0" type="curve" smooth="yes"/>
      <point x="260.5" y="113.0"/>
      <point x="210.0" y="186.0"/>
      <point x="210.0" y="267.0" type="curve" smooth="yes"/>
      <point x="210.0" y="600.0" type="line"/>
      <point x="69.0" y="600.0" type="line"/>
      <point x="69.0" y="248.0" type="line" smooth="yes"/>
      <point x="69.0" y="80.5"/>
      <point x="184.5" y="-16.0"/>
    </contour>
    <contour>
      <point x="500.0" y="0.0" type="line"/>
      <point x="629.0" y="0.0" type="line"/>
      <point x="629.0" y="600.0" type="line"/>
      <point x="488.0" y="600.0" type="line"/>
      <point x="488.0" y="174.0" type="line"/>
      <point x="500.0" y="149.0" type="line"/>
    </contour>
  </outline>
</glyph>
<glyph name="x" format="2">
  <advance width="620.0"/>
  <unicode hex="0078"/>
  <outline>
    <contour>
      <point x="18.0" y="0.0" type="line"/>
      <point x="175.0" y="0.0" type="line"/>
      <point x="256.5" y="131.0" type="line" smooth="yes"/>
      <point x="285.5" y="177.5"/>
      <point x="315.5" y="228.0"/>
      <point x="335.0" y="282.0" type="curve"/>
      <point x="281.0" y="282.0" type="line"/>
      <point x="300.5" y="228.0"/>
      <point x="330.5" y="177.5"/>
      <point x="359.5" y="131.0" type="curve" smooth="yes"/>
      <point x="441.0" y="0.0" type="line"/>
      <point x="602.0" y="0.0" type="line"/>
      <point x="392.5" y="315.5" type="line"/>
      <point x="582.0" y="600.0" type="line"/>
      <point x="425.0" y="600.0" type="line"/>
      <point x="368.0" y="508.0" type="line" smooth="yes"/>
      <point x="339.5" y="461.5"/>
      <point x="309.5" y="412.0"/>
      <point x="290.0" y="358.0" type="curve"/>
      <point x="332.0" y="358.0" type="line"/>
      <point x="312.5" y="412.0"/>
      <point x="283.5" y="463.0"/>
      <point x="255.0" y="508.0" type="curve" smooth="yes"/>
      <point x="197.0" y="600.0" type="line"/>
      <point x="38.0" y="600.0" type="line"/>
      <point x="227.0" y="315.5" type="line"/>
    </contour>
  </outline>
</glyph>
<glyph name="y" format="2">
  <advance width="670.0"/>
  <unicode hex="0079"/>
  <anchor x="452.0" y="0.0" name="bottom"/>
  <anchor x="338.0" y="600.0" name="top"/>
  <outline>
    <contour>
      <point x="61.0" y="-300.0" type="line"/>
      <point x="213.0" y="-300.0" type="line"/>
      <point x="661.0" y="600.0" type="line"/>
      <point x="511.0" y="600.0" type="line"/>
      <point x="392.0" y="360.0" type="line" smooth="yes"/>
      <point x="354.5" y="285.0"/>
      <point x="336.0" y="238.0"/>
      <point x="310.0" y="149.0" type="curve"/>
      <point x="362.0" y="148.0" type="line"/>
      <point x="336.0" y="238.0"/>
      <point x="320.0" y="284.0"/>
      <point x="283.0" y="360.0" type="curve" smooth="yes"/>
      <point x="166.0" y="600.0" type="line"/>
      <point x="9.0" y="600.0" type="line"/>
      <point x="258.5" y="95.0" type="line"/>
    </contour>
  </outline>
</glyph>
<glyph name="bar" format="2">
  <advance width="480.0"/>
  <unicode hex="007C"/>
  <outline>
    <contour>
      <point x="180.0" y="-180.0" type="line"/>
      <point x="300.0" y="-180.0" type="line"/>
      <point x="300.0" y="960.0" type="line"/>
      <point x="180.0" y="960.0" type="line"/>
    </contour>
  </outline>
</glyph>
<glyph name="asciitilde" format="2">
  <advance width="750.0"/>
  <unicode hex="007E"/>
  <outline>
    <contour>
      <point x="98.5" y="326.0" type="line"/>
      <point x="127.5" y="389.5"/>
      <point x="171.0" y="432.0"/>
      <point x="233.0" y="432.0" type="curve" smooth="yes"/>
      <point x="320.0" y="432.0"/>
      <point x="406.0" y="348.0"/>
      <point x="517.0" y="348.0" type="curve" smooth="yes"/>
      <point x="598.5" y="348.0"/>
      <point x="671.5" y="393.5"/>
      <point x="711.0" y="472.0" type="curve"/>
      <point x="651.5" y="574.0" type="line"/>
      <point x="622.5" y="510.5"/>
      <point x="579.0" y="468.0"/>
      <point x="517.0" y="468.0" type="curve" smooth="yes"/>
      <point x="430.0" y="468.0"/>
      <point x="344.0" y="552.0"/>
      <point x="233.0" y="552.0" type="curve" smooth="yes"/>
      <point x="151.5" y="552.0"/>
      <point x="78.5" y="506.5"/>
      <point x="39.0" y="428.0" type="curve"/>
    </contour>
  </outline>
</glyph>
<glyph name="cent" format="2">
  <advance width="750.0"/>
  <unicode hex="00A2"/>
  <outline>
    <contour>
      <point x="426.0" y="134.0" type="curve" smooth="yes"/>
      <point x="511.0" y="134.0"/>
      <point x="587.5" y="164.5"/>
      <point x="645.0" y="216.5" type="curve"/>
      <point x="606.0" y="373.0" type="line"/>
      <point x="572.5" y="311.0"/>
      <point x="508.5" y="263.0"/>
      <point x="429.0" y="263.0" type="curve" smooth="yes"/>
      <point x="324.0" y="263.0"/>
      <point x="243.0" y="347.0"/>
      <point x="243.0" y="450.0" type="curve" smooth="yes"/>
      <point x="243.0" y="553.0"/>
      <point x="324.0" y="637.0"/>
      <point x="429.0" y="637.0" type="curve" smooth="yes"/>
      <point x="508.5" y="637.0"/>
      <point x="572.5" y="587.5"/>
      <point x="606.0" y="527.0" type="curve"/>
      <point x="645.0" y="683.5" type="line"/>
      <point x="587.5" y="735.5"/>
      <point x="511.0" y="766.0"/>
      <point x="426.0" y="766.0" type="curve" smooth="yes"/>
      <point x="248.5" y="766.0"/>
      <point x="105.0" y="624.5"/>
      <point x="105.0" y="450.0" type="curve" smooth="yes"/>
      <point x="105.0" y="275.5"/>
      <point x="248.5" y="134.0"/>
    </contour>
    <contour>
      <point x="372.0" y="0.0" type="line"/>
      <point x="468.0" y="0.0" type="line"/>
      <point x="468.0" y="180.0" type="line"/>
      <point x="372.0" y="180.0" type="line"/>
    </contour>
    <contour>
      <point x="372.0" y="720.0" type="line"/>
      <point x="468.0" y="720.0" type="line"/>
      <point x="468.0" y="870.0" type="line"/>
      <point x="372.0" y="870.0" type="line"/>
    </contour>
  </outline>
</glyph>
<glyph name="yen" format="2">
  <advance width="750.0"/>
  <unicode hex="00A5"/>
  <anchor x="53.0" y="900.0" name="topleft"/>
  <outline>
    <contour>
      <point x="301.5" y="0.0" type="line"/>
      <point x="448.5" y="0.0" type="line"/>
      <point x="448.5" y="430.5" type="line"/>
      <point x="713.0" y="900.0" type="line"/>
      <point x="558.0" y="900.5" type="line"/>
      <point x="430.0" y="668.0" type="line" smooth="yes"/>
      <point x="406.0" y="624.5"/>
      <point x="385.5" y="587.0"/>
      <point x="361.5" y="514.5" type="curve"/>
      <point x="398.0" y="514.0" type="line"/>
      <point x="376.0" y="586.0"/>
      <point x="354.0" y="625.5"/>
      <point x="331.0" y="668.0" type="curve" smooth="yes"/>
      <point x="204.0" y="900.0" type="line"/>
      <point x="37.0" y="900.0" type="line"/>
      <point x="301.5" y="430.5" type="line"/>
    </contour>
    <contour>
      <point x="81.0" y="306.0" type="line"/>
      <point x="669.0" y="306.0" type="line"/>
      <point x="669.0" y="402.0" type="line"/>
      <point x="81.0" y="402.0" type="line"/>
    </contour>
    <contour>
      <point x="81.0" y="498.0" type="line"/>
      <point x="669.0" y="498.0" type="line"/>
      <point x="669.0" y="594.0" type="line"/>
      <point x="451.0" y="594.0" type="line"/>
      <point x="385.0" y="497.0" type="line"/>
      <point x="303.0" y="594.0" type="line"/>
      <point x="81.0" y="594.0" type="line"/>
    </contour>
  </outline>
</glyph>
<glyph name="copyright" format="2">
  <advance width="1260.0"/>
  <unicode hex="00A9"/>
  <outline>
    <contour>
      <point x="630.0" y="-192.0" type="curve" smooth="yes"/>
      <point x="938.0" y="-192.0"/>
      <point x="1188.0" y="55.0"/>
      <point x="1188.0" y="360.0" type="curve" smooth="yes"/>
      <point x="1188.0" y="665.0"/>
      <point x="938.0" y="912.0"/>
      <point x="630.0" y="912.0" type="curve" smooth="yes"/>
      <point x="322.0" y="912.0"/>
      <point x="72.0" y="665.0"/>
      <point x="72.0" y="360.0" type="curve" smooth="yes"/>
      <point x="72.0" y="55.0"/>
      <point x="322.0" y="-192.0"/>
    </contour>
    <contour>
      <point x="652.5" y="78.0" type="curve" smooth="yes"/>
      <point x="729.5" y="78.0"/>
      <point x="799.0" y="105.0"/>
      <point x="851.0" y="151.5" type="curve"/>
      <point x="815.0" y="292.5" type="line"/>
      <point x="784.5" y="237.5"/>
      <point x="726.5" y="195.0"/>
      <point x="655.0" y="195.0" type="curve" smooth="yes"/>
      <point x="560.0" y="195.0"/>
      <point x="488.0" y="269.5"/>
      <point x="488.0" y="360.0" type="curve" smooth="yes"/>
      <point x="488.0" y="450.5"/>
      <point x="560.5" y="525.0"/>
      <point x="655.0" y="525.0" type="curve" smooth="yes"/>
      <point x="726.5" y="525.0"/>
      <point x="784.5" y="481.0"/>
      <point x="815.0" y="427.0" type="curve"/>
      <point x="851.0" y="569.0" type="line"/>
      <point x="799.0" y="615.5"/>
      <point x="729.0" y="642.0"/>
      <point x="653.5" y="642.0" type="curve" smooth="yes"/>
      <point x="490.5" y="642.0"/>
      <point x="361.0" y="515.5"/>
      <point x="361.0" y="360.0" type="curve" smooth="yes"/>
      <point x="361.0" y="204.0"/>
      <point x="491.5" y="78.0"/>
    </contour>
    <contour>
      <point x="630.0" y="-81.0" type="curve" smooth="yes"/>
      <point x="386.5" y="-81.0"/>
      <point x="189.0" y="116.5"/>
      <point x="189.0" y="360.0" type="curve" smooth="yes"/>
      <point x="189.0" y="603.5"/>
      <point x="386.5" y="801.0"/>
      <point x="630.0" y="801.0" type="curve" smooth="yes"/>
      <point x="873.5" y="801.0"/>
      <point x="1071.0" y="603.5"/>
      <point x="1071.0" y="360.0" type="curve" smooth="yes"/>
      <point x="1071.0" y="116.5"/>
      <point x="873.5" y="-81.0"/>
    </contour>
  </outline>
</glyph>
<glyph name="guillemetleft" format="2">
  <advance width="615.0"/>
  <unicode hex="00AB"/>
  <outline>
    <contour>
      <point x="445.5" y="60.0" type="line"/>
      <point x="580.5" y="60.0" type="line"/>
      <point x="418.5" y="300.0" type="line"/>
      <point x="580.5" y="540.0" type="line"/>
      <point x="445.5" y="540.0" type="line"/>
      <point x="283.5" y="300.0" type="line"/>
    </contour>
    <contour>
      <point x="190.5" y="60.0" type="line"/>
      <point x="325.5" y="60.0" type="line"/>
      <point x="163.5" y="300.0" type="line"/>
      <point x="325.5" y="540.0" type="line"/>
      <point x="190.5" y="540.0" type="line"/>
      <point x="28.5" y="300.0" type="line"/>
    </contour>
  </outline>
</glyph>
<glyph name="logicalnot" format="2">
  <advance width="750.0"/>
  <unicode hex="00AC"/>
  <outline>
    <contour>
      <point x="548.0" y="195.0" type="line"/>
      <point x="665.0" y="195.0" type="line"/>
      <point x="665.0" y="508.5" type="line"/>
      <point x="55.0" y="508.5" type="line"/>
      <point x="55.0" y="391.5" type="line"/>
      <point x="548.0" y="391.5" type="line"/>
    </contour>
  </outline>
</glyph>
<glyph name="registered" format="2">
  <advance width="600.0"/>
  <unicode hex="00AE"/>
  <outline>
    <contour>
      <point x="300.0" y="398.0" type="curve" smooth="yes"/>
      <point x="448.0" y="398.0"/>
      <point x="568.0" y="515.0"/>
      <point x="568.0" y="660.0" type="curve" smooth="yes"/>
      <point x="568.0" y="805.0"/>
      <point x="448.0" y="922.0"/>
      <point x="300.0" y="922.0" type="curve" smooth="yes"/>
      <point x="152.0" y="922.0"/>
      <point x="32.0" y="805.0"/>
      <point x="32.0" y="660.0" type="curve" smooth="yes"/>
      <point x="32.0" y="515.0"/>
      <point x="152.0" y="398.0"/>
    </contour>
    <contour>
      <point x="300.0" y="467.0" type="curve" smooth="yes"/>
      <point x="194.0" y="467.0"/>
      <point x="107.0" y="554.0"/>
      <point x="107.0" y="660.0" type="curve" smooth="yes"/>
      <point x="107.0" y="766.0"/>
      <point x="194.0" y="853.0"/>
      <point x="300.0" y="853.0" type="curve" smooth="yes"/>
      <point x="406.0" y="853.0"/>
      <point x="493.0" y="766.0"/>
      <point x="493.0" y="660.0" type="curve" smooth="yes"/>
      <point x="493.0" y="554.0"/>
      <point x="406.0" y="467.0"/>
    </contour>
    <contour>
      <point x="206.0" y="546.0" type="line"/>
      <point x="272.0" y="546.0" type="line"/>
      <point x="272.0" y="786.0" type="line"/>
      <point x="206.0" y="786.0" type="line"/>
    </contour>
    <contour>
      <point x="344.0" y="546.0" type="line"/>
      <point x="419.0" y="546.0" type="line"/>
      <point x="356.0" y="636.0" type="line"/>
      <point x="282.0" y="636.0" type="line"/>
    </contour>
    <contour>
      <point x="236.0" y="616.0" type="line"/>
      <point x="310.0" y="616.0" type="line" smooth="yes"/>
      <point x="369.0" y="616.0"/>
      <point x="408.0" y="649.0"/>
      <point x="408.0" y="700.0" type="curve" smooth="yes"/>
      <point x="408.0" y="747.0"/>
      <point x="371.0" y="786.0"/>
      <point x="310.0" y="786.0" type="curve" smooth="yes"/>
      <point x="236.0" y="786.0" type="line"/>
      <point x="236.0" y="732.0" type="line"/>
      <point x="302.0" y="732.0" type="line" smooth="yes"/>
      <point x="326.0" y="732.0"/>
      <point x="342.0" y="720.0"/>
      <point x="342.0" y="699.0" type="curve" smooth="yes"/>
      <point x="342.0" y="681.0"/>
      <point x="328.0" y="666.0"/>
      <point x="302.0" y="666.0" type="curve" smooth="yes"/>
      <point x="236.0" y="666.0" type="line"/>
    </contour>
  </outline>
</glyph>
<glyph name="micro" format="2">
  <advance width="740.0"/>
  <unicode hex="00B5"/>
  <unicode hex="03BC"/>
  <outline>
    <contour>
      <point x="81.0" y="-300.0" type="line"/>
      <point x="222.0" y="-300.0" type="line"/>
      <point x="222.0" y="94.0" type="line"/>
      <point x="199.5" y="71.0" type="line"/>
      <point x="237.0" y="14.5"/>
      <point x="294.0" y="-16.0"/>
      <point x="358.0" y="-16.0" type="curve" smooth="yes"/>
      <point x="437.5" y="-16.0"/>
      <point x="508.5" y="31.0"/>
      <point x="540.5" y="119.5" type="curve"/>
      <point x="511.5" y="117.5" type="line"/>
      <point x="535.5" y="34.5"/>
      <point x="603.5" y="-12.0"/>
      <point x="691.0" y="-12.0" type="curve"/>
      <point x="718.5" y="104.0" type="line"/>
      <point x="670.5" y="104.0"/>
      <point x="641.0" y="127.0"/>
      <point x="641.0" y="189.5" type="curve" smooth="yes"/>
      <point x="641.0" y="600.0" type="line"/>
      <point x="500.0" y="600.0" type="line"/>
      <point x="500.0" y="264.5" type="line" smooth="yes"/>
      <point x="500.0" y="166.0"/>
      <point x="433.0" y="113.0"/>
      <point x="361.0" y="113.0" type="curve" smooth="yes"/>
      <point x="272.5" y="113.0"/>
      <point x="222.0" y="186.0"/>
      <point x="222.0" y="267.0" type="curve" smooth="yes"/>
      <point x="222.0" y="600.0" type="line"/>
      <point x="81.0" y="600.0" type="line"/>
    </contour>
  </outline>
</glyph>
<glyph name="ordmasculine" format="2">
  <advance width="480.0"/>
  <unicode hex="00BA"/>
  <outline>
    <contour>
      <point x="240.0" y="405.0" type="curve" smooth="yes"/>
      <point x="352.0" y="405.0"/>
      <point x="442.0" y="492.5"/>
      <point x="442.0" y="600.0" type="curve" smooth="yes"/>
      <point x="442.0" y="707.5"/>
      <point x="352.0" y="795.0"/>
      <point x="240.0" y="795.0" type="curve" smooth="yes"/>
      <point x="128.0" y="795.0"/>
      <point x="38.0" y="707.5"/>
      <point x="38.0" y="600.0" type="curve" smooth="yes"/>
      <point x="38.0" y="492.5"/>
      <point x="128.0" y="405.0"/>
    </contour>
    <contour>
      <point x="240.0" y="504.0" type="curve" smooth="yes"/>
      <point x="184.5" y="504.0"/>
      <point x="141.5" y="547.0"/>
      <point x="141.5" y="600.0" type="curve" smooth="yes"/>
      <point x="141.5" y="653.0"/>
      <point x="184.5" y="696.0"/>
      <point x="240.0" y="696.0" type="curve" smooth="yes"/>
      <point x="294.5" y="696.0"/>
      <point x="338.5" y="653.0"/>
      <point x="338.5" y="600.0" type="curve" smooth="yes"/>
      <point x="338.5" y="547.0"/>
      <point x="294.5" y="504.0"/>
    </contour>
  </outline>
</glyph>
<glyph name="guillemetright" format="2">
  <advance width="615.0"/>
  <unicode hex="00BB"/>
  <outline>
    <contour>
      <point x="289.5" y="60.0" type="line"/>
      <point x="424.5" y="60.0" type="line"/>
      <point x="586.5" y="300.0" type="line"/>
      <point x="424.5" y="540.0" type="line"/>
      <point x="289.5" y="540.0" type="line"/>
      <point x="451.5" y="300.0" type="line"/>
    </contour>
    <contour>
      <point x="34.5" y="60.0" type="line"/>
      <point x="169.5" y="60.0" type="line"/>
      <point x="331.5" y="300.0" type="line"/>
      <point x="169.5" y="540.0" type="line"/>
      <point x="34.5" y="540.0" type="line"/>
      <point x="196.5" y="300.0" type="line"/>
    </contour>
  </outline>
</glyph>
<glyph name="AE" format="2">
  <advance width="1030.0"/>
  <unicode hex="00C6"/>
  <anchor x="639.5" y="0.0" name="bottom"/>
  <anchor x="857.0" y="0.0" name="ogonek"/>
  <anchor x="484.5525" y="900.0" name="top"/>
  <anchor x="125.0" y="720.0" name="top-vertical"/>
  <anchor x="404.0525" y="900.0" name="topleft"/>
  <outline>
    <contour>
      <point x="15.0" y="0.0" type="line"/>
      <point x="160.0" y="0.0" type="line"/>
      <point x="351.0" y="468.0" type="line"/>
      <point x="374.0" y="525.0"/>
      <point x="398.5" y="582.0"/>
      <point x="420.5" y="655.0" type="curve"/>
      <point x="438.0" y="582.0"/>
      <point x="457.5" y="525.0"/>
      <point x="476.0" y="468.0" type="curve"/>
      <point x="627.0" y="0.0" type="line"/>
      <point x="1003.0" y="0.0" type="line"/>
      <point x="1003.0" y="132.0" type="line"/>
      <point x="727.5" y="132.0" type="line"/>
      <point x="615.5" y="480.0" type="line"/>
      <point x="829.0" y="480.0" type="line"/>
      <point x="829.0" y="606.0" type="line"/>
      <point x="574.0" y="606.0" type="line"/>
      <point x="521.0" y="771.0" type="line"/>
      <point x="799.0" y="771.0" type="line"/>
      <point x="799.0" y="900.0" type="line"/>
      <point x="392.0" y="900.0" type="line"/>
    </contour>
    <contour>
      <point x="199.5" y="213.5" type="line"/>
      <point x="604.5" y="213.5" type="line"/>
      <point x="561.0" y="333.0" type="line"/>
      <point x="244.5" y="333.0" type="line"/>
    </contour>
  </outline>
</glyph>
<glyph name="Thorn" format="2">
  <advance width="730.0"/>
  <unicode hex="00DE"/>
  <outline>
    <contour>
      <point x="179.0" y="182.5" type="line"/>
      <point x="358.5" y="182.5" type="line" smooth="yes"/>
      <point x="603.5" y="182.5"/>
      <point x="691.0" y="349.5"/>
      <point x="691.0" y="481.0" type="curve" smooth="yes"/>
      <point x="691.0" y="615.0"/>
      <point x="602.5" y="780.0"/>
      <point x="358.5" y="780.0" type="curve" smooth="yes"/>
      <point x="179.0" y="780.0" type="line"/>
      <point x="179.0" y="651.0" type="line"/>
      <point x="350.5" y="651.0" type="line" smooth="yes"/>
      <point x="497.5" y="651.0"/>
      <point x="544.0" y="560.0"/>
      <point x="544.0" y="481.0" type="curve" smooth="yes"/>
      <point x="544.0" y="399.0"/>
      <point x="495.0" y="311.5"/>
      <point x="350.5" y="311.5" type="curve" smooth="yes"/>
      <point x="179.0" y="311.5" type="line"/>
    </contour>
    <contour>
      <point x="111.0" y="0.0" type="line"/>
      <point x="255.0" y="0.0" type="line"/>
      <point x="255.0" y="900.0" type="line"/>
      <point x="111.0" y="900.0" type="line"/>
    </contour>
  </outline>
</glyph>
<glyph name="germandbls" format="2">
  <advance width="705.0"/>
  <unicode hex="00DF"/>
  <outline>
    <contour>
      <point x="362.5" y="-14.5" type="line"/>
      <point x="529.5" y="-7.5"/>
      <point x="675.0" y="134.0"/>
      <point x="675.0" y="317.5" type="curve" smooth="yes"/>
      <point x="675.0" y="452.5"/>
      <point x="597.0" y="562.0"/>
      <point x="482.5" y="612.5" type="curve"/>
      <point x="490.0" y="575.0" type="line"/>
      <point x="543.0" y="616.0"/>
      <point x="580.0" y="673.0"/>
      <point x="580.0" y="748.0" type="curve" smooth="yes"/>
      <point x="580.0" y="877.5"/>
      <point x="473.5" y="976.0"/>
      <point x="334.0" y="976.0" type="curve" smooth="yes"/>
      <point x="194.0" y="976.0"/>
      <point x="81.0" y="875.5"/>
      <point x="81.0" y="723.0" type="curve" smooth="yes"/>
      <point x="81.0" y="0.0" type="line"/>
      <point x="222.0" y="0.0" type="line"/>
      <point x="222.0" y="722.5" type="line" smooth="yes"/>
      <point x="222.0" y="799.5"/>
      <point x="270.0" y="850.0"/>
      <point x="334.5" y="850.0" type="curve" smooth="yes"/>
      <point x="398.0" y="850.0"/>
      <point x="445.0" y="801.0"/>
      <point x="445.0" y="735.5" type="curve" smooth="yes"/>
      <point x="445.0" y="670.0"/>
      <point x="396.0" y="609.5"/>
      <point x="306.0" y="563.0" type="curve"/>
      <point x="448.0" y="513.0"/>
      <point x="528.0" y="430.5"/>
      <point x="528.0" y="315.0" type="curve" smooth="yes"/>
      <point x="528.0" y="195.5"/>
      <point x="442.5" y="116.5"/>
      <point x="332.0" y="111.5" type="curve"/>
    </contour>
  </outline>
</glyph>
<glyph name="ae" format="2">
  <advance width="1115.0"/>
  <unicode hex="00E6"/>
  <anchor x="555.0" y="0.0" name="bottom"/>
  <anchor x="555.0" y="600.0" name="top"/>
  <outline>
    <contour>
      <point x="794.5" y="-16.0" type="curve" smooth="yes"/>
      <point x="876.0" y="-16.0"/>
      <point x="953.0" y="9.0"/>
      <point x="1012.0" y="55.0" type="curve"/>
      <point x="978.0" y="194.5" type="line"/>
      <point x="938.5" y="143.5"/>
      <point x="873.0" y="107.0"/>
      <point x="797.0" y="107.0" type="curve" smooth="yes"/>
      <point x="677.5" y="107.0"/>
      <point x="594.0" y="192.5"/>
      <point x="594.0" y="304.0" type="curve"/>
      <point x="586.5" y="304.0" type="line"/>
      <point x="586.5" y="414.0"/>
      <point x="665.5" y="499.0"/>
      <point x="768.5" y="499.0" type="curve" smooth="yes"/>
      <point x="871.5" y="499.0"/>
      <point x="949.5" y="419.0"/>
      <point x="949.5" y="307.0" type="curve"/>
      <point x="975.0" y="353.5" type="line"/>
      <point x="935.0" y="363.0"/>
      <point x="895.0" y="367.5"/>
      <point x="849.5" y="367.5" type="curve" smooth="yes"/>
      <point x="696.5" y="367.5" type="line" smooth="yes"/>
      <point x="644.5" y="367.5"/>
      <point x="594.5" y="359.5"/>
      <point x="542.5" y="347.5" type="curve"/>
      <point x="542.5" y="279.5" type="line"/>
      <point x="594.5" y="267.5"/>
      <point x="644.5" y="259.5"/>
      <point x="696.5" y="259.5" type="curve" smooth="yes"/>
      <point x="1076.0" y="259.5" type="line"/>
      <point x="1076.0" y="312.0" type="line" smooth="yes"/>
      <point x="1076.0" y="485.0"/>
      <point x="941.5" y="616.0"/>
      <point x="770.0" y="616.0" type="curve" smooth="yes"/>
      <point x="685.0" y="616.0"/>
      <point x="609.0" y="581.5"/>
      <point x="554.5" y="526.0" type="curve"/>
      <point x="505.0" y="581.5"/>
      <point x="424.0" y="614.0"/>
      <point x="326.0" y="614.0" type="curve" smooth="yes"/>
      <point x="237.5" y="614.0"/>
      <point x="154.5" y="588.0"/>
      <point x="91.0" y="548.0" type="curve"/>
      <point x="122.5" y="421.0" type="line"/>
      <point x="169.5" y="465.5"/>
      <point x="236.0" y="497.0"/>
      <point x="313.5" y="497.0" type="curve" smooth="yes"/>
      <point x="416.0" y="497.0"/>
      <point x="477.5" y="442.0"/>
      <point x="485.5" y="372.5" type="curve"/>
      <point x="480.5" y="344.0" type="line"/>
      <point x="428.0" y="368.5"/>
      <point x="370.5" y="381.0"/>
      <point x="307.5" y="381.0" type="curve" smooth="yes"/>
      <point x="153.5" y="381.0"/>
      <point x="45.0" y="305.0"/>
      <point x="45.0" y="184.0" type="curve" smooth="yes"/>
      <point x="45.0" y="66.0"/>
      <point x="141.0" y="-11.0"/>
      <point x="283.0" y="-11.0" type="curve" smooth="yes"/>
      <point x="385.5" y="-11.0"/>
      <point x="476.0" y="29.5"/>
      <point x="534.0" y="103.0" type="curve"/>
      <point x="592.0" y="30.0"/>
      <point x="684.0" y="-16.0"/>
    </contour>
    <contour>
      <point x="295.0" y="100.0" type="curve" smooth="yes"/>
      <point x="222.0" y="100.0"/>
      <point x="180.0" y="136.5"/>
      <point x="180.0" y="185.5" type="curve" smooth="yes"/>
      <point x="180.0" y="241.5"/>
      <point x="235.5" y="273.0"/>
      <point x="320.5" y="273.0" type="curve" smooth="yes"/>
      <point x="375.0" y="273.0"/>
      <point x="436.0" y="260.5"/>
      <point x="482.5" y="240.0" type="curve"/>
      <point x="486.5" y="218.5" type="line"/>
      <point x="465.5" y="151.0"/>
      <point x="382.5" y="100.0"/>
    </contour>
  </outline>
</glyph>
<glyph name="kgreenlandic" format="2">
  <advance width="650.0"/>
  <unicode hex="0138"/>
  <anchor x="346.0" y="0.0" name="bottom"/>
  <anchor x="300.0" y="600.0" name="top"/>
  <outline>
    <contour>
      <point x="475.0" y="0.0" type="line"/>
      <point x="646.0" y="0.0" type="line"/>
      <point x="357.0" y="369.0" type="line"/>
      <point x="344.0" y="294.5" type="line"/>
      <point x="584.5" y="600.0" type="line"/>
      <point x="428.5" y="600.0" type="line"/>
      <point x="219.0" y="330.0" type="line"/>
    </contour>
    <contour>
      <point x="81.0" y="0.0" type="line"/>
      <point x="219.0" y="0.0" type="line"/>
      <point x="219.0" y="600.0" type="line"/>
      <point x="81.0" y="600.0" type="line"/>
    </contour>
  </outline>
</glyph>
<glyph name="Eng" format="2">
  <advance width="990.0"/>
  <unicode hex="014A"/>
  <anchor x="495.0" y="0.0" name="bottom"/>
  <anchor x="495.0" y="900.0" name="top"/>
  <outline>
    <contour>
      <point x="585.5" y="-196.0" type="curve" smooth="yes"/>
      <point x="716.0" y="-196.0"/>
      <point x="834.0" y="-115.5"/>
      <point x="834.0" y="66.0" type="curve" smooth="yes"/>
      <point x="834.0" y="900.0" type="line"/>
      <point x="696.0" y="900.0" type="line"/>
      <point x="696.0" y="313.5" type="line"/>
      <point x="111.0" y="930.0" type="line"/>
      <point x="111.0" y="0.0" type="line"/>
      <point x="249.0" y="0.0" type="line"/>
      <point x="249.0" y="574.0" type="line"/>
      <point x="696.0" y="102.0" type="line"/>
      <point x="696.0" y="89.5" type="line" smooth="yes"/>
      <point x="696.0" y="-20.5"/>
      <point x="641.5" y="-61.0"/>
      <point x="575.5" y="-61.0" type="curve" smooth="yes"/>
      <point x="518.5" y="-61.0"/>
      <point x="472.0" y="-32.0"/>
      <point x="444.0" y="14.0" type="curve"/>
      <point x="404.0" y="-130.0" type="line"/>
      <point x="449.0" y="-176.5"/>
      <point x="518.5" y="-196.0"/>
    </contour>
  </outline>
</glyph>
<glyph name="oe" format="2">
  <advance width="1175.0"/>
  <unicode hex="0153"/>
  <anchor x="587.5" y="0.0" name="bottom"/>
  <anchor x="587.5" y="600.0" name="top"/>
  <outline>
    <contour>
      <point x="365.0" y="-16.0" type="curve" smooth="yes"/>
      <point x="459.5" y="-16.0"/>
      <point x="544.5" y="24.5"/>
      <point x="602.5" y="88.5" type="curve"/>
      <point x="661.5" y="24.0"/>
      <point x="749.5" y="-16.0"/>
      <point x="854.5" y="-16.0" type="curve" smooth="yes"/>
      <point x="936.0" y="-16.0"/>
      <point x="1013.0" y="9.0"/>
      <point x="1072.0" y="55.0" type="curve"/>
      <point x="1038.0" y="194.5" type="line"/>
      <point x="998.5" y="143.5"/>
      <point x="933.0" y="107.0"/>
      <point x="857.0" y="107.0" type="curve" smooth="yes"/>
      <point x="737.5" y="107.0"/>
      <point x="654.0" y="192.5"/>
      <point x="654.0" y="304.0" type="curve"/>
      <point x="646.5" y="304.0" type="line"/>
      <point x="646.5" y="414.0"/>
      <point x="725.5" y="499.0"/>
      <point x="828.5" y="499.0" type="curve" smooth="yes"/>
      <point x="927.5" y="499.0"/>
      <point x="1004.0" y="425.0"/>
      <point x="1008.5" y="321.0" type="curve"/>
      <point x="1031.0" y="355.0" type="line"/>
      <point x="993.0" y="363.5"/>
      <point x="953.5" y="367.5"/>
      <point x="909.5" y="367.5" type="curve" smooth="yes"/>
      <point x="742.0" y="367.5" type="line" smooth="yes"/>
      <point x="690.0" y="367.5"/>
      <point x="640.0" y="359.5"/>
      <point x="588.0" y="347.5" type="curve"/>
      <point x="588.0" y="279.5" type="line"/>
      <point x="640.0" y="267.5"/>
      <point x="690.0" y="259.5"/>
      <point x="742.0" y="259.5" type="curve" smooth="yes"/>
      <point x="1136.0" y="259.5" type="line"/>
      <point x="1136.0" y="312.0" type="line" smooth="yes"/>
      <point x="1136.0" y="485.0"/>
      <point x="1001.0" y="616.0"/>
      <point x="829.5" y="616.0" type="curve" smooth="yes"/>
      <point x="738.0" y="616.0"/>
      <point x="656.0" y="577.0"/>
      <point x="599.5" y="514.0" type="curve"/>
      <point x="541.5" y="576.5"/>
      <point x="458.5" y="616.0"/>
      <point x="365.0" y="616.0" type="curve" smooth="yes"/>
      <point x="188.0" y="616.0"/>
      <point x="45.0" y="475.0"/>
      <point x="45.0" y="300.0" type="curve" smooth="yes"/>
      <point x="45.0" y="125.0"/>
      <point x="188.0" y="-16.0"/>
    </contour>
    <contour>
      <point x="365.0" y="113.0" type="curve" smooth="yes"/>
      <point x="262.0" y="113.0"/>
      <point x="180.5" y="196.5"/>
      <point x="180.5" y="300.0" type="curve" smooth="yes"/>
      <point x="180.5" y="403.5"/>
      <point x="262.0" y="487.0"/>
      <point x="365.0" y="487.0" type="curve" smooth="yes"/>
      <point x="467.0" y="487.0"/>
      <point x="549.5" y="403.5"/>
      <point x="549.5" y="300.0" type="curve" smooth="yes"/>
      <point x="549.5" y="196.5"/>
      <point x="467.0" y="113.0"/>
    </contour>
  </outline>
</glyph>
<glyph name="uhorn" format="2">
  <advance width="840.0"/>
  <unicode hex="01B0"/>
  <anchor x="354.0" y="0.0" name="bottom"/>
  <anchor x="352.0" y="600.0" name="top"/>
  <outline>
    <contour>
      <point x="311.5" y="-16.0" type="curve" smooth="yes"/>
      <point x="440.0" y="-16.0"/>
      <point x="549.0" y="79.5"/>
      <point x="549.0" y="252.0" type="curve"/>
      <point x="488.0" y="264.5" type="line"/>
      <point x="488.0" y="166.0"/>
      <point x="421.0" y="113.0"/>
      <point x="348.0" y="113.0" type="curve" smooth="yes"/>
      <point x="261.0" y="113.0"/>
      <point x="210.0" y="185.5"/>
      <point x="210.0" y="267.0" type="curve" smooth="yes"/>
      <point x="210.0" y="600.0" type="line"/>
      <point x="69.0" y="600.0" type="line"/>
      <point x="69.0" y="248.0" type="line" smooth="yes"/>
      <point x="69.0" y="80.5"/>
      <point x="184.5" y="-16.0"/>
    </contour>
    <contour>
      <point x="500.0" y="0.0" type="line"/>
      <point x="629.0" y="0.0" type="line"/>
      <point x="629.0" y="441.5" type="line"/>
      <point x="620.0" y="445.0" type="line"/>
      <point x="620.0" y="600.0" type="line"/>
      <point x="488.0" y="600.0" type="line"/>
      <point x="488.0" y="174.0" type="line"/>
      <point x="500.0" y="149.0" type="line"/>
    </contour>
    <contour>
      <point x="670.5" y="392.0" type="curve" smooth="yes"/>
      <point x="752.5" y="392.0"/>
      <point x="826.0" y="454.0"/>
      <point x="826.0" y="568.0" type="curve" smooth="yes"/>
      <point x="826.0" y="597.0"/>
      <point x="821.0" y="628.0"/>
      <point x="802.0" y="660.0" type="curve"/>
      <point x="685.0" y="660.0" type="line"/>
      <point x="704.0" y="627.0"/>
      <point x="709.0" y="592.0"/>
      <point x="709.0" y="568.0" type="curve" smooth="yes"/>
      <point x="709.0" y="509.5"/>
      <point x="675.0" y="485.0"/>
      <point x="639.5" y="485.0" type="curve" smooth="yes"/>
      <point x="611.0" y="485.0"/>
      <point x="585.0" y="499.5"/>
      <point x="570.0" y="528.5" type="curve"/>
      <point x="570.0" y="428.0" type="line"/>
      <point x="597.0" y="404.5"/>
      <point x="633.0" y="392.0"/>
    </contour>
  </outline>
</glyph>
<glyph name="Ezh" format="2">
  <advance width="660.0"/>
  <unicode hex="01B7"/>
  <anchor x="302.0" y="0.0" name="bottom"/>
  <anchor x="321.5" y="900.0" name="top"/>
  <outline>
    <contour>
      <point x="299.0" y="-16.0" type="curve" smooth="yes"/>
      <point x="476.0" y="-16.0"/>
      <point x="624.0" y="121.5"/>
      <point x="624.0" y="299.5" type="curve" smooth="yes"/>
      <point x="624.0" y="454.0"/>
      <point x="512.5" y="573.5"/>
      <point x="374.0" y="598.5" type="curve"/>
      <point x="383.0" y="545.5" type="line"/>
      <point x="572.5" y="900.0" type="line"/>
      <point x="78.0" y="900.0" type="line"/>
      <point x="78.0" y="771.0" type="line"/>
      <point x="409.0" y="771.0" type="line"/>
      <point x="381.5" y="817.0" type="line"/>
      <point x="195.5" y="454.5" type="line"/>
      <point x="227.0" y="471.5"/>
      <point x="260.5" y="481.0"/>
      <point x="298.0" y="481.0" type="curve" smooth="yes"/>
      <point x="404.0" y="481.0"/>
      <point x="482.0" y="400.0"/>
      <point x="482.0" y="300.5" type="curve" smooth="yes"/>
      <point x="482.0" y="199.0"/>
      <point x="402.0" y="119.0"/>
      <point x="300.0" y="119.0" type="curve" smooth="yes"/>
      <point x="200.5" y="119.0"/>
      <point x="121.0" y="194.5"/>
      <point x="105.0" y="290.5" type="curve"/>
      <point x="25.0" y="132.0" type="line"/>
      <point x="80.5" y="42.0"/>
      <point x="182.5" y="-16.0"/>
    </contour>
  </outline>
</glyph>
<glyph name="gravecomb" format="2">
  <unicode hex="0300"/>
  <anchor x="422.0" y="600.0" name="_top"/>
  <outline>
    <contour>
      <point x="368.0" y="684.0" type="line"/>
      <point x="482.0" y="684.0" type="line"/>
      <point x="391.0" y="876.0" type="line"/>
      <point x="233.5" y="876.0" type="line"/>
    </contour>
  </outline>
</glyph>
<glyph name="tildecomb" format="2">
  <unicode hex="0303"/>
  <anchor x="360.0" y="600.0" name="_top"/>
  <outline>
    <contour>
      <point x="178.5" y="683.0" type="line"/>
      <point x="197.5" y="729.0"/>
      <point x="227.5" y="756.0"/>
      <point x="271.0" y="756.0" type="curve" smooth="yes"/>
      <point x="328.5" y="756.0"/>
      <point x="383.0" y="704.0"/>
      <point x="452.0" y="704.0" type="curve" smooth="yes"/>
      <point x="506.0" y="704.0"/>
      <point x="551.5" y="733.0"/>
      <point x="578.5" y="786.0" type="curve"/>
      <point x="541.5" y="892.0" type="line"/>
      <point x="522.5" y="846.0"/>
      <point x="492.5" y="819.0"/>
      <point x="449.0" y="819.0" type="curve" smooth="yes"/>
      <point x="391.5" y="819.0"/>
      <point x="337.0" y="871.0"/>
      <point x="268.0" y="871.0" type="curve" smooth="yes"/>
      <point x="214.0" y="871.0"/>
      <point x="168.5" y="842.0"/>
      <point x="141.5" y="789.0" type="curve"/>
    </contour>
  </outline>
</glyph>
<glyph name="macroncomb" format="2">
  <unicode hex="0304"/>
  <anchor x="360.0" y="600.0" name="_top"/>
  <outline>
    <contour>
      <point x="210.0" y="729.0" type="line"/>
      <point x="510.0" y="729.0" type="line"/>
      <point x="510.0" y="831.0" type="line"/>
      <point x="210.0" y="831.0" type="line"/>
    </contour>
  </outline>
</glyph>
<glyph name="ringcomb" format="2">
  <unicode hex="030A"/>
  <anchor x="360.0" y="600.0" name="_top"/>
  <outline>
    <contour>
      <point x="360.0" y="648.0" type="curve" smooth="yes"/>
      <point x="435.5" y="648.0"/>
      <point x="495.0" y="704.5"/>
      <point x="495.0" y="780.0" type="curve" smooth="yes"/>
      <point x="495.0" y="854.5"/>
      <point x="433.5" y="912.0"/>
      <point x="360.0" y="912.0" type="curve" smooth="yes"/>
      <point x="285.5" y="912.0"/>
      <point x="225.0" y="854.5"/>
      <point x="225.0" y="780.0" type="curve" smooth="yes"/>
      <point x="225.0" y="705.5"/>
      <point x="285.5" y="648.0"/>
    </contour>
    <contour>
      <point x="360.0" y="721.5" type="curve" smooth="yes"/>
      <point x="327.5" y="721.5"/>
      <point x="301.5" y="747.5"/>
      <point x="301.5" y="780.0" type="curve" smooth="yes"/>
      <point x="301.5" y="812.5"/>
      <point x="327.5" y="838.5"/>
      <point x="360.0" y="838.5" type="curve" smooth="yes"/>
      <point x="391.5" y="838.5"/>
      <point x="418.5" y="812.5"/>
      <point x="418.5" y="780.0" type="curve" smooth="yes"/>
      <point x="418.5" y="747.5"/>
      <point x="392.5" y="721.5"/>
    </contour>
  </outline>
</glyph>
<glyph name="commaturnedabovecomb" format="2">
  <unicode hex="0312"/>
  <anchor x="360.0" y="600.0" name="_top"/>
  <outline>
    <contour>
      <point x="293.5" y="714.0" type="curve"/>
      <point x="426.5" y="714.0" type="line"/>
      <point x="433.5" y="801.5"/>
      <point x="466.5" y="872.5"/>
      <point x="513.0" y="930.0" type="curve"/>
      <point x="367.0" y="930.0" type="line"/>
      <point x="326.0" y="866.0"/>
      <point x="299.5" y="794.0"/>
    </contour>
  </outline>
</glyph>
<glyph name="dotbelowcomb" format="2">
  <unicode hex="0323"/>
  <anchor x="360.0" y="0.0" name="_bottom"/>
  <anchor x="360.0" y="-252.0" name="bottom"/>
  <outline>
    <contour>
      <point x="360.0" y="-262.5" type="curve" smooth="yes"/>
      <point x="407.0" y="-262.5"/>
      <point x="442.5" y="-226.0"/>
      <point x="442.5" y="-180.0" type="curve" smooth="yes"/>
      <point x="442.5" y="-133.0"/>
      <point x="407.0" y="-97.5"/>
      <point x="360.0" y="-97.5" type="curve" smooth="yes"/>
      <point x="314.0" y="-97.5"/>
      <point x="277.5" y="-133.0"/>
      <point x="277.5" y="-180.0" type="curve" smooth="yes"/>
      <point x="277.5" y="-226.0"/>
      <point x="314.0" y="-262.5"/>
    </contour>
  </outline>
</glyph>
<glyph name="dieresisbelowcomb" format="2">
  <unicode hex="0324"/>
  <anchor x="360.0" y="0.0" name="_top"/>
  <outline>
    <contour>
      <point x="354.0" y="-259.5" type="curve" smooth="yes"/>
      <point x="398.5" y="-259.5"/>
      <point x="433.5" y="-224.5"/>
      <point x="433.5" y="-180.0" type="curve" smooth="yes"/>
      <point x="433.5" y="-135.5"/>
      <point x="398.5" y="-100.5"/>
      <point x="354.0" y="-100.5" type="curve" smooth="yes"/>
      <point x="309.5" y="-100.5"/>
      <point x="274.5" y="-135.5"/>
      <point x="274.5" y="-180.0" type="curve" smooth="yes"/>
      <point x="274.5" y="-224.5"/>
      <point x="309.5" y="-259.5"/>
    </contour>
    <contour>
      <point x="366.0" y="-259.5" type="curve" smooth="yes"/>
      <point x="410.5" y="-259.5"/>
      <point x="445.5" y="-224.5"/>
      <point x="445.5" y="-180.0" type="curve" smooth="yes"/>
      <point x="445.5" y="-135.5"/>
      <point x="410.5" y="-100.5"/>
      <point x="366.0" y="-100.5" type="curve" smooth="yes"/>
      <point x="321.5" y="-100.5"/>
      <point x="286.5" y="-135.5"/>
      <point x="286.5" y="-180.0" type="curve" smooth="yes"/>
      <point x="286.5" y="-224.5"/>
      <point x="321.5" y="-259.5"/>
    </contour>
  </outline>
</glyph>
<glyph name="commaaccentcomb" format="2">
  <unicode hex="0326"/>
  <anchor x="360.0" y="0.0" name="_bottom"/>
  <anchor x="280.0" y="-330.0" name="bottom"/>
  <outline>
    <contour>
      <point x="207.0" y="-330.0" type="curve"/>
      <point x="353.0" y="-330.0" type="line"/>
      <point x="394.0" y="-266.0"/>
      <point x="420.5" y="-194.0"/>
      <point x="426.5" y="-114.0" type="curve"/>
      <point x="293.5" y="-114.0" type="line"/>
      <point x="286.5" y="-201.5"/>
      <point x="253.5" y="-272.5"/>
    </contour>
  </outline>
</glyph>
<glyph name="ogonekcomb" format="2">
  <unicode hex="0328"/>
  <anchor x="403.0" y="0.0" name="_ogonek"/>
  <outline>
    <contour>
      <point x="463.5" y="-315.0" type="curve"/>
      <point x="489.5" y="-204.5" type="line"/>
      <point x="441.0" y="-204.0"/>
      <point x="405.5" y="-180.5"/>
      <point x="405.5" y="-125.0" type="curve" smooth="yes"/>
      <point x="405.5" y="-78.5"/>
      <point x="429.5" y="-42.0"/>
      <point x="465.5" y="0.0" type="curve"/>
      <point x="340.5" y="0.0" type="line"/>
      <point x="302.5" y="-50.0"/>
      <point x="280.5" y="-100.0"/>
      <point x="280.5" y="-153.0" type="curve" smooth="yes"/>
      <point x="280.5" y="-260.0"/>
      <point x="362.0" y="-315.0"/>
    </contour>
  </outline>
</glyph>
<glyph name="brevebelowcomb" format="2">
  <unicode hex="032E"/>
  <anchor x="360.0" y="0.0" name="_bottom"/>
  <anchor x="360.0" y="-249.0" name="bottom"/>
  <outline>
    <contour>
      <point x="360.0" y="-255.0" type="curve" smooth="yes"/>
      <point x="468.0" y="-255.0"/>
      <point x="552.0" y="-176.0"/>
      <point x="552.0" y="-69.0" type="curve"/>
      <point x="445.0" y="-69.0" type="line"/>
      <point x="445.0" y="-116.0"/>
      <point x="405.5" y="-154.0"/>
      <point x="360.0" y="-154.0" type="curve" smooth="yes"/>
      <point x="314.5" y="-154.0"/>
      <point x="275.0" y="-116.0"/>
      <point x="275.0" y="-69.0" type="curve"/>
      <point x="168.0" y="-69.0" type="line"/>
      <point x="168.0" y="-174.5"/>
      <point x="253.0" y="-255.0"/>
    </contour>
  </outline>
</glyph>
<glyph name="strokeshortcomb" format="2">
  <unicode hex="0335"/>
  <anchor x="340.0" y="300.0" name="_center"/>
  <outline>
    <contour>
      <point x="71.0" y="256.0" type="line"/>
      <point x="469.0" y="256.0" type="line"/>
      <point x="469.0" y="344.0" type="line"/>
      <point x="71.0" y="344.0" type="line"/>
    </contour>
  </outline>
</glyph>
<glyph name="Germandbls" format="2">
  <advance width="990.0"/>
  <unicode hex="1E9E"/>
  <outline>
    <contour>
      <point x="619.0" y="-16.0" type="curve" smooth="yes"/>
      <point x="794.5" y="-16.0"/>
      <point x="941.0" y="120.0"/>
      <point x="941.0" y="296.5" type="curve" smooth="yes"/>
      <point x="941.0" y="450.0"/>
      <point x="828.0" y="570.0"/>
      <point x="689.5" y="593.0" type="curve"/>
      <point x="698.5" y="540.5" type="line"/>
      <point x="891.0" y="900.0" type="line"/>
      <point x="117.0" y="900.0" type="line"/>
      <point x="117.0" y="0.0" type="line"/>
      <point x="266.5" y="0.0" type="line"/>
      <point x="266.5" y="771.0" type="line"/>
      <point x="678.0" y="771.0" type="line"/>
      <point x="513.5" y="450.5" type="line"/>
      <point x="545.5" y="468.0"/>
      <point x="579.5" y="478.0"/>
      <point x="618.0" y="478.0" type="curve" smooth="yes"/>
      <point x="724.0" y="478.0"/>
      <point x="802.0" y="397.0"/>
      <point x="802.0" y="297.5" type="curve" smooth="yes"/>
      <point x="802.0" y="196.0"/>
      <point x="722.0" y="116.0"/>
      <point x="620.0" y="116.0" type="curve" smooth="yes"/>
      <point x="520.5" y="116.0"/>
      <point x="441.0" y="191.5"/>
      <point x="425.0" y="287.5" type="curve"/>
      <point x="346.0" y="130.5" type="line"/>
      <point x="401.5" y="41.5"/>
      <point x="503.0" y="-16.0"/>
    </contour>
  </outline>
</glyph>
<glyph name="quoteleft" format="2">
  <advance width="280.0"/>
  <unicode hex="2018"/>
  <outline>
    <contour>
      <point x="46.5" y="585.0" type="curve"/>
      <point x="184.5" y="585.0" type="line"/>
      <point x="184.5" y="719.5"/>
      <point x="225.5" y="822.0"/>
      <point x="284.0" y="900.0" type="curve"/>
      <point x="136.5" y="900.0" type="line"/>
      <point x="78.0" y="811.0"/>
      <point x="46.5" y="705.0"/>
    </contour>
  </outline>
</glyph>
<glyph name="dagger" format="2">
  <advance width="600.0"/>
  <unicode hex="2020"/>
  <outline>
    <contour>
      <point x="232.5" y="0.0" type="line"/>
      <point x="367.5" y="0.0" type="line"/>
      <point x="354.0" y="660.0" type="line"/>
      <point x="307.5" y="582.5" type="line"/>
      <point x="534.0" y="574.0" type="line"/>
      <point x="534.0" y="686.5" type="line"/>
      <point x="354.0" y="677.5" type="line"/>
      <point x="367.5" y="900.0" type="line"/>
      <point x="232.5" y="900.0" type="line"/>
      <point x="246.5" y="677.5" type="line"/>
      <point x="66.0" y="686.5" type="line"/>
      <point x="66.0" y="574.0" type="line"/>
      <point x="292.5" y="582.5" type="line"/>
      <point x="246.5" y="660.0" type="line"/>
    </contour>
  </outline>
</glyph>
<glyph name="ellipsis" format="2">
  <advance width="1440.0"/>
  <unicode hex="2026"/>
  <outline>
    <contour>
      <point x="1200.0" y="-16.0" type="curve" smooth="yes"/>
      <point x="1251.5" y="-16.0"/>
      <point x="1290.0" y="23.5"/>
      <point x="1290.0" y="74.0" type="curve" smooth="yes"/>
      <point x="1290.0" y="124.5"/>
      <point x="1251.5" y="164.0"/>
      <point x="1200.0" y="164.0" type="curve" smooth="yes"/>
      <point x="1149.5" y="164.0"/>
      <point x="1110.0" y="124.5"/>
      <point x="1110.0" y="74.0" type="curve" smooth="yes"/>
      <point x="1110.0" y="23.5"/>
      <point x="1149.5" y="-16.0"/>
    </contour>
    <contour>
      <point x="240.0" y="-16.0" type="curve" smooth="yes"/>
      <point x="291.5" y="-16.0"/>
      <point x="330.0" y="23.5"/>
      <point x="330.0" y="74.0" type="curve" smooth="yes"/>
      <point x="330.0" y="124.5"/>
      <point x="291.5" y="164.0"/>
      <point x="240.0" y="164.0" type="curve" smooth="yes"/>
      <point x="189.5" y="164.0"/>
      <point x="150.0" y="124.5"/>
      <point x="150.0" y="74.0" type="curve" smooth="yes"/>
      <point x="150.0" y="23.5"/>
      <point x="189.5" y="-16.0"/>
    </contour>
    <contour>
      <point x="720.0" y="-16.0" type="curve" smooth="yes"/>
      <point x="771.5" y="-16.0"/>
      <point x="810.0" y="23.5"/>
      <point x="810.0" y="74.0" type="curve" smooth="yes"/>
      <point x="810.0" y="124.5"/>
      <point x="771.5" y="164.0"/>
      <point x="720.0" y="164.0" type="curve" smooth="yes"/>
      <point x="669.5" y="164.0"/>
      <point x="630.0" y="124.5"/>
      <point x="630.0" y="74.0" type="curve" smooth="yes"/>
      <point x="630.0" y="23.5"/>
      <point x="669.5" y="-16.0"/>
    </contour>
  </outline>
</glyph>
<glyph name="numero" format="2">
  <advance width="1425.0"/>
  <unicode hex="2116"/>
  <outline>
    <contour>
      <point x="834.0" y="-30.0" type="line"/>
      <point x="834.0" y="900.0" type="line"/>
      <point x="696.0" y="900.0" type="line"/>
      <point x="696.0" y="323.5" type="line"/>
      <point x="111.0" y="930.0" type="line"/>
      <point x="111.0" y="0.0" type="line"/>
      <point x="249.0" y="0.0" type="line"/>
      <point x="249.0" y="577.0" type="line"/>
    </contour>
    <contour>
      <point x="1185.0" y="104.0" type="curve" smooth="yes"/>
      <point x="1236.0" y="104.0"/>
      <point x="1275.0" y="143.5"/>
      <point x="1275.0" y="194.0" type="curve" smooth="yes"/>
      <point x="1275.0" y="244.5"/>
      <point x="1236.0" y="284.0"/>
      <point x="1185.0" y="284.0" type="curve" smooth="yes"/>
      <point x="1134.5" y="284.0"/>
      <point x="1095.0" y="244.5"/>
      <point x="1095.0" y="194.0" type="curve" smooth="yes"/>
      <point x="1095.0" y="143.5"/>
      <point x="1134.5" y="104.0"/>
    </contour>
    <contour>
      <point x="1185.0" y="405.0" type="curve" smooth="yes"/>
      <point x="1297.0" y="405.0"/>
      <point x="1387.0" y="492.5"/>
      <point x="1387.0" y="600.0" type="curve" smooth="yes"/>
      <point x="1387.0" y="707.5"/>
      <point x="1297.0" y="795.0"/>
      <point x="1185.0" y="795.0" type="curve" smooth="yes"/>
      <point x="1073.0" y="795.0"/>
      <point x="983.0" y="707.5"/>
      <point x="983.0" y="600.0" type="curve" smooth="yes"/>
      <point x="983.0" y="492.5"/>
      <point x="1073.0" y="405.0"/>
    </contour>
    <contour>
      <point x="1185.0" y="504.0" type="curve" smooth="yes"/>
      <point x="1129.5" y="504.0"/>
      <point x="1086.5" y="547.0"/>
      <point x="1086.5" y="600.0" type="curve" smooth="yes"/>
      <point x="1086.5" y="653.0"/>
      <point x="1129.5" y="696.0"/>
      <point x="1185.0" y="696.0" type="curve" smooth="yes"/>
      <point x="1239.5" y="696.0"/>
      <point x="1283.5" y="653.0"/>
      <point x="1283.5" y="600.0" type="curve" smooth="yes"/>
      <point x="1283.5" y="547.0"/>
      <point x="1239.5" y="504.0"/>
    </contour>
  </outline>
</glyph>
<glyph name="trademark" format="2">
  <advance width="840.0"/>
  <unicode hex="2122"/>
  <outline>
    <contour>
      <point x="391.0" y="540.0" type="line"/>
      <point x="484.0" y="540.0" type="line"/>
      <point x="484.0" y="614.0" type="line" smooth="yes"/>
      <point x="484.0" y="640.5"/>
      <point x="484.0" y="659.0"/>
      <point x="482.5" y="678.0" type="curve"/>
      <point x="491.5" y="664.5"/>
      <point x="501.0" y="652.5"/>
      <point x="513.0" y="637.0" type="curve" smooth="yes"/>
      <point x="586.0" y="546.0" type="line"/>
      <point x="658.5" y="636.5" type="line" smooth="yes"/>
      <point x="670.5" y="651.5"/>
      <point x="679.0" y="663.0"/>
      <point x="687.5" y="675.0" type="curve"/>
      <point x="686.0" y="655.5"/>
      <point x="686.0" y="636.5"/>
      <point x="686.0" y="614.0" type="curve" smooth="yes"/>
      <point x="686.0" y="540.0" type="line"/>
      <point x="785.0" y="540.0" type="line"/>
      <point x="785.0" y="933.0" type="line"/>
      <point x="588.0" y="687.0" type="line"/>
      <point x="391.0" y="930.0" type="line"/>
    </contour>
    <contour>
      <point x="130.5" y="540.0" type="line"/>
      <point x="229.5" y="540.0" type="line"/>
      <point x="229.5" y="810.0" type="line"/>
      <point x="329.0" y="810.0" type="line"/>
      <point x="329.0" y="900.0" type="line"/>
      <point x="31.0" y="900.0" type="line"/>
      <point x="31.0" y="810.0" type="line"/>
      <point x="130.5" y="810.0" type="line"/>
    </contour>
  </outline>
</glyph>
<glyph name="el" format="2">
  <advance width="750.0"/>
  <unicode hex="218B"/>
  <outline>
    <contour>
      <point x="130.5" y="0.0" type="line"/>
      <point x="662.5" y="0.0" type="line"/>
      <point x="662.5" y="129.0" type="line"/>
      <point x="288.5" y="129.0" type="line"/>
      <point x="318.5" y="83.5" type="line"/>
      <point x="520.0" y="472.0" type="line"/>
      <point x="490.5" y="458.5"/>
      <point x="461.0" y="452.5"/>
      <point x="427.0" y="452.5" type="curve" smooth="yes"/>
      <point x="332.0" y="452.5"/>
      <point x="261.0" y="526.0"/>
      <point x="261.0" y="618.5" type="curve" smooth="yes"/>
      <point x="261.0" y="712.0"/>
      <point x="334.5" y="785.0"/>
      <point x="428.0" y="785.0" type="curve" smooth="yes"/>
      <point x="514.5" y="785.0"/>
      <point x="585.0" y="722.0"/>
      <point x="604.5" y="638.5" type="curve"/>
      <point x="681.0" y="787.5" type="line"/>
      <point x="625.5" y="867.0"/>
      <point x="532.5" y="916.0"/>
      <point x="429.5" y="916.0" type="curve" smooth="yes"/>
      <point x="262.0" y="916.0"/>
      <point x="122.0" y="785.0"/>
      <point x="122.0" y="618.0" type="curve" smooth="yes"/>
      <point x="122.0" y="475.0"/>
      <point x="226.0" y="360.5"/>
      <point x="357.0" y="339.0" type="curve"/>
      <point x="344.0" y="398.5" type="line"/>
    </contour>
  </outline>
</glyph>
<glyph name="minus" format="2">
  <advance width="750.0"/>
  <unicode hex="2212"/>
  <outline>
    <contour>
      <point x="85.0" y="391.0" type="line"/>
      <point x="665.0" y="391.0" type="line"/>
      <point x="665.0" y="509.0" type="line"/>
      <point x="85.0" y="509.0" type="line"/>
    </contour>
  </outline>
</glyph>
<glyph name="approxequal" format="2">
  <advance width="750.0"/>
  <unicode hex="2248"/>
  <outline>
    <contour>
      <point x="98.5" y="452.0" type="line"/>
      <point x="127.5" y="515.5"/>
      <point x="171.0" y="558.0"/>
      <point x="233.0" y="558.0" type="curve" smooth="yes"/>
      <point x="320.0" y="558.0"/>
      <point x="406.0" y="474.0"/>
      <point x="517.0" y="474.0" type="curve" smooth="yes"/>
      <point x="598.5" y="474.0"/>
      <point x="671.5" y="519.5"/>
      <point x="711.0" y="598.0" type="curve"/>
      <point x="651.5" y="700.0" type="line"/>
      <point x="622.5" y="636.5"/>
      <point x="579.0" y="594.0"/>
      <point x="517.0" y="594.0" type="curve" smooth="yes"/>
      <point x="430.0" y="594.0"/>
      <point x="344.0" y="678.0"/>
      <point x="233.0" y="678.0" type="curve" smooth="yes"/>
      <point x="151.5" y="678.0"/>
      <point x="78.5" y="632.5"/>
      <point x="39.0" y="554.0" type="curve"/>
    </contour>
    <contour>
      <point x="98.5" y="200.0" type="line"/>
      <point x="127.5" y="263.5"/>
      <point x="171.0" y="306.0"/>
      <point x="233.0" y="306.0" type="curve" smooth="yes"/>
      <point x="320.0" y="306.0"/>
      <point x="406.0" y="222.0"/>
      <point x="517.0" y="222.0" type="curve" smooth="yes"/>
      <point x="598.5" y="222.0"/>
      <point x="671.5" y="267.5"/>
      <point x="711.0" y="346.0" type="curve"/>
      <point x="651.5" y="448.0" type="line"/>
      <point x="622.5" y="384.5"/>
      <point x="579.0" y="342.0"/>
      <point x="517.0" y="342.0" type="curve" smooth="yes"/>
      <point x="430.0" y="342.0"/>
      <point x="344.0" y="426.0"/>
      <point x="233.0" y="426.0" type="curve" smooth="yes"/>
      <point x="151.5" y="426.0"/>
      <point x="78.5" y="380.5"/>
      <point x="39.0" y="302.0" type="curve"/>
    </contour>
  </outline>
</glyph>
<glyph name="rightanglebracket-math" format="2">
  <advance width="480.0"/>
  <unicode hex="27E9"/>
  <outline>
    <contour>
      <point x="42.0" y="-180.0" type="line"/>
      <point x="184.5" y="-180.0" type="line"/>
      <point x="447.0" y="390.0" type="line"/>
      <point x="184.5" y="960.0" type="line"/>
      <point x="42.0" y="960.0" type="line"/>
      <point x="304.5" y="390.0" type="line"/>
    </contour>
  </outline>
</glyph>
<glyph name="A.ring" format="2">
  <advance width="810.0"/>
  <anchor x="405.0" y="900.0" name="top"/>
  <outline>
    <contour>
      <point x="15.0" y="0.0" type="line"/>
      <point x="160.0" y="0.0" type="line"/>
      <point x="351.0" y="468.0" type="line"/>
      <point x="370.5" y="515.5"/>
      <point x="386.0" y="556.0"/>
      <point x="401.5" y="617.0" type="curve"/>
      <point x="417.5" y="555.5"/>
      <point x="434.0" y="515.0"/>
      <point x="453.5" y="468.0" type="curve"/>
      <point x="644.0" y="0.0" type="line"/>
      <point x="795.0" y="0.0" type="line"/>
      <point x="418.0" y="900.0" type="line"/>
      <point x="392.0" y="900.0" type="line"/>
    </contour>
    <contour>
      <point x="199.5" y="213.5" type="line"/>
      <point x="604.5" y="213.5" type="line"/>
      <point x="561.0" y="333.0" type="line"/>
      <point x="244.5" y="333.0" type="line"/>
    </contour>
  </outline>
</glyph>
<glyph name="acutecomb.small" format="2">
  <anchor x="314.0" y="600.0" name="_top"/>
  <outline>
    <contour>
      <point x="266.0" y="630.0" type="line"/>
      <point x="350.0" y="630.0" type="line"/>
      <point x="454.0" y="780.0" type="line"/>
      <point x="342.0" y="780.0" type="line"/>
    </contour>
  </outline>
</glyph>
<glyph name="bracketright.titl" format="2">
  <advance width="480.0"/>
  <outline>
    <contour>
      <point x="60.0" y="-180.0" type="line"/>
      <point x="345.0" y="-180.0" type="line"/>
      <point x="345.0" y="960.0" type="line"/>
      <point x="60.0" y="960.0" type="line"/>
      <point x="60.0" y="898.0" type="line"/>
      <point x="278.0" y="898.0" type="line"/>
      <point x="278.0" y="-118.0" type="line"/>
      <point x="60.0" y="-118.0" type="line"/>
    </contour>
  </outline>
</glyph>
<glyph name="brevecomb_acutecomb" format="2">
  <anchor x="360.0" y="600.0" name="_top"/>
  <outline>
    <contour>
      <point x="360.0" y="669.0" type="curve" smooth="yes"/>
      <point x="468.0" y="669.0"/>
      <point x="552.0" y="748.0"/>
      <point x="552.0" y="855.0" type="curve"/>
      <point x="450.0" y="855.0" type="line"/>
      <point x="450.0" y="805.0"/>
      <point x="408.0" y="765.0"/>
      <point x="360.0" y="765.0" type="curve" smooth="yes"/>
      <point x="312.0" y="765.0"/>
      <point x="270.0" y="805.0"/>
      <point x="270.0" y="855.0" type="curve"/>
      <point x="168.0" y="855.0" type="line"/>
      <point x="168.0" y="749.5"/>
      <point x="253.0" y="669.0"/>
    </contour>
    <contour>
      <point x="295.5" y="879.0" type="line"/>
      <point x="400.5" y="879.0" type="line"/>
      <point x="508.0" y="1029.0" type="line"/>
      <point x="368.0" y="1029.0" type="line"/>
    </contour>
  </outline>
</glyph>
<glyph name="brevecomb_gravecomb" format="2">
  <anchor x="360.0" y="600.0" name="_top"/>
  <outline>
    <contour>
      <point x="360.0" y="669.0" type="curve" smooth="yes"/>
      <point x="467.5" y="669.0"/>
      <point x="552.0" y="748.5"/>
      <point x="552.0" y="855.0" type="curve"/>
      <point x="450.0" y="855.0" type="line"/>
      <point x="450.0" y="805.0"/>
      <point x="408.0" y="765.0"/>
      <point x="360.0" y="765.0" type="curve" smooth="yes"/>
      <point x="312.0" y="765.0"/>
      <point x="270.0" y="805.0"/>
      <point x="270.0" y="855.0" type="curve"/>
      <point x="168.0" y="855.0" type="line"/>
      <point x="168.0" y="749.0"/>
      <point x="252.5" y="669.0"/>
    </contour>
    <contour>
      <point x="319.5" y="879.0" type="line"/>
      <point x="424.5" y="879.0" type="line"/>
      <point x="352.0" y="1029.0" type="line"/>
      <point x="212.0" y="1029.0" type="line"/>
    </contour>
  </outline>
</glyph>
<glyph name="brevecomb_tildecomb" format="2">
  <anchor x="360.0" y="600.0" name="_top"/>
  <outline>
    <contour>
      <point x="360.0" y="669.0" type="curve" smooth="yes"/>
      <point x="468.0" y="669.0"/>
      <point x="552.0" y="748.0"/>
      <point x="552.0" y="855.0" type="curve"/>
      <point x="450.0" y="855.0" type="line"/>
      <point x="450.0" y="805.0"/>
      <point x="408.0" y="765.0"/>
      <point x="360.0" y="765.0" type="curve" smooth="yes"/>
      <point x="312.0" y="765.0"/>
      <point x="270.0" y="805.0"/>
      <point x="270.0" y="855.0" type="curve"/>
      <point x="168.0" y="855.0" type="line"/>
      <point x="168.0" y="749.5"/>
      <point x="253.0" y="669.0"/>
    </contour>
    <contour>
      <point x="205.0" y="894.5" type="line"/>
      <point x="221.0" y="934.5"/>
      <point x="247.0" y="957.5"/>
      <point x="284.0" y="957.5" type="curve" smooth="yes"/>
      <point x="333.0" y="957.5"/>
      <point x="379.5" y="912.5"/>
      <point x="438.5" y="912.5" type="curve" smooth="yes"/>
      <point x="484.5" y="912.5"/>
      <point x="524.0" y="937.5"/>
      <point x="547.0" y="982.5" type="curve"/>
      <point x="515.0" y="1073.0" type="line"/>
      <point x="499.0" y="1034.0"/>
      <point x="473.0" y="1011.0"/>
      <point x="436.0" y="1011.0" type="curve" smooth="yes"/>
      <point x="387.0" y="1011.0"/>
      <point x="340.5" y="1056.5"/>
      <point x="281.5" y="1056.5" type="curve" smooth="yes"/>
      <point x="235.5" y="1056.5"/>
      <point x="196.0" y="1031.5"/>
      <point x="173.0" y="986.0" type="curve"/>
    </contour>
  </outline>
</glyph>
<glyph name="caroncomb.alt" format="2">
  <anchor x="230.0" y="960.0" name="_topright"/>
  <outline>
    <contour>
      <point x="250.5" y="645.0" type="curve"/>
      <point x="386.0" y="645.0" type="line"/>
      <point x="444.5" y="734.0"/>
      <point x="476.0" y="839.5"/>
      <point x="476.0" y="960.0" type="curve"/>
      <point x="350.0" y="960.0" type="line"/>
      <point x="350.0" y="825.5"/>
      <point x="309.0" y="723.0"/>
    </contour>
  </outline>
</glyph>
<glyph name="caroncomb.alt.t" format="2">
  <anchor x="239.0" y="960.0" name="_topright"/>
  <outline>
    <contour>
      <point x="265.0" y="660.0" type="curve"/>
      <point x="373.0" y="660.0" type="line"/>
      <point x="418.0" y="730.0"/>
      <point x="449.0" y="810.0"/>
      <point x="458.0" y="900.0" type="curve"/>
      <point x="362.0" y="900.0" type="line"/>
      <point x="352.0" y="801.0"/>
      <point x="315.0" y="722.0"/>
    </contour>
  </outline>
</glyph>
<glyph name="circumflexcomb_tildecomb" format="2">
  <anchor x="360.0" y="600.0" name="_top"/>
  <outline>
    <contour>
      <point x="156.0" y="684.0" type="line"/>
      <point x="290.0" y="684.0" type="line"/>
      <point x="315.0" y="707.0"/>
      <point x="333.5" y="729.5"/>
      <point x="358.0" y="760.5" type="curve"/>
      <point x="382.5" y="729.5"/>
      <point x="401.0" y="707.0"/>
      <point x="426.0" y="684.0" type="curve"/>
      <point x="564.0" y="684.0" type="line"/>
      <point x="360.0" y="900.0" type="line"/>
    </contour>
    <contour>
      <point x="205.0" y="894.5" type="line"/>
      <point x="221.0" y="934.5"/>
      <point x="247.0" y="957.5"/>
      <point x="284.0" y="957.5" type="curve" smooth="yes"/>
      <point x="333.0" y="957.5"/>
      <point x="379.5" y="912.5"/>
      <point x="438.5" y="912.5" type="curve" smooth="yes"/>
      <point x="484.5" y="912.5"/>
      <point x="524.0" y="937.5"/>
      <point x="547.0" y="982.5" type="curve"/>
      <point x="515.0" y="1073.0" type="line"/>
      <point x="499.0" y="1034.0"/>
      <point x="473.0" y="1011.0"/>
      <point x="436.0" y="1011.0" type="curve" smooth="yes"/>
      <point x="387.0" y="1011.0"/>
      <point x="340.5" y="1056.5"/>
      <point x="281.5" y="1056.5" type="curve" smooth="yes"/>
      <point x="235.5" y="1056.5"/>
      <point x="196.0" y="1031.5"/>
      <point x="173.0" y="986.0" type="curve"/>
    </contour>
  </outline>
</glyph>
<glyph name="dek.lf" format="2">
  <advance width="690.0"/>
  <outline>
    <contour>
      <point x="353.0" y="-16.0" type="curve" smooth="yes"/>
      <point x="509.0" y="-16.0"/>
      <point x="632.5" y="106.0"/>
      <point x="632.5" y="254.0" type="curve" smooth="yes"/>
      <point x="632.5" y="296.0"/>
      <point x="622.0" y="335.0"/>
      <point x="601.0" y="374.0" type="curve"/>
      <point x="434.5" y="374.0" type="line"/>
      <point x="474.5" y="341.0"/>
      <point x="494.5" y="299.5"/>
      <point x="494.5" y="254.5" type="curve" smooth="yes"/>
      <point x="494.5" y="177.5"/>
      <point x="433.5" y="116.0"/>
      <point x="354.0" y="116.0" type="curve" smooth="yes"/>
      <point x="274.5" y="116.0"/>
      <point x="212.5" y="177.5"/>
      <point x="212.5" y="254.5" type="curve" smooth="yes"/>
      <point x="212.5" y="283.5"/>
      <point x="222.0" y="315.0"/>
      <point x="254.0" y="363.0" type="curve" smooth="yes"/>
      <point x="617.5" y="900.0" type="line"/>
      <point x="57.5" y="900.0" type="line"/>
      <point x="57.5" y="768.0" type="line"/>
      <point x="450.0" y="768.0" type="line"/>
      <point x="409.0" y="822.5" type="line"/>
      <point x="139.5" y="436.5" type="line" smooth="yes"/>
      <point x="91.5" y="367.5"/>
      <point x="71.5" y="315.0"/>
      <point x="71.5" y="254.5" type="curve" smooth="yes"/>
      <point x="71.5" y="103.5"/>
      <point x="199.5" y="-16.0"/>
    </contour>
  </outline>
</glyph>
<glyph name="dek.numr" format="2">
  <advance width="480.0"/>
  <outline>
    <contour>
      <point x="252.0" y="405.0" type="curve" smooth="yes"/>
      <point x="350.0" y="405.0"/>
      <point x="424.5" y="475.0"/>
      <point x="424.5" y="567.5" type="curve" smooth="yes"/>
      <point x="424.5" y="589.5"/>
      <point x="420.5" y="605.5"/>
      <point x="413.0" y="624.0" type="curve"/>
      <point x="298.0" y="624.0" type="line"/>
      <point x="311.5" y="606.5"/>
      <point x="317.5" y="590.0"/>
      <point x="317.5" y="571.0" type="curve" smooth="yes"/>
      <point x="317.5" y="532.0"/>
      <point x="292.0" y="505.0"/>
      <point x="253.0" y="505.0" type="curve" smooth="yes"/>
      <point x="215.0" y="505.0"/>
      <point x="189.0" y="531.5"/>
      <point x="189.0" y="568.5" type="curve" smooth="yes"/>
      <point x="189.0" y="590.0"/>
      <point x="196.0" y="609.5"/>
      <point x="223.0" y="644.5" type="curve" smooth="yes"/>
      <point x="422.5" y="900.0" type="line"/>
      <point x="55.5" y="900.0" type="line"/>
      <point x="55.5" y="803.0" type="line"/>
      <point x="163.5" y="803.0" type="line"/>
      <point x="205.0" y="803.0"/>
      <point x="240.0" y="805.5"/>
      <point x="284.5" y="809.0" type="curve"/>
      <point x="271.5" y="839.5" type="line"/>
      <point x="219.5" y="792.0"/>
      <point x="177.0" y="744.5"/>
      <point x="139.0" y="697.0" type="curve" smooth="yes"/>
      <point x="97.5" y="646.0"/>
      <point x="80.0" y="608.5"/>
      <point x="80.0" y="567.0" type="curve" smooth="yes"/>
      <point x="80.0" y="477.5"/>
      <point x="154.0" y="405.0"/>
    </contour>
  </outline>
</glyph>
<glyph name="dieresiscomb.case" format="2">
  <anchor x="360.0" y="900.0" name="_top"/>
  <anchor x="360.0" y="1149.0" name="top"/>
  <outline>
    <contour>
      <point x="490.5" y="997.5" type="curve" smooth="yes"/>
      <point x="537.0" y="997.5"/>
      <point x="573.0" y="1034.5"/>
      <point x="573.0" y="1080.0" type="curve" smooth="yes"/>
      <point x="573.0" y="1126.5"/>
      <point x="537.0" y="1162.5"/>
      <point x="490.5" y="1162.5" type="curve" smooth="yes"/>
      <point x="445.0" y="1162.5"/>
      <point x="408.0" y="1126.5"/>
      <point x="408.0" y="1080.0" type="curve" smooth="yes"/>
      <point x="408.0" y="1034.5"/>
      <point x="445.0" y="997.5"/>
    </contour>
    <contour>
      <point x="229.5" y="997.5" type="curve" smooth="yes"/>
      <point x="276.0" y="997.5"/>
      <point x="312.0" y="1034.5"/>
      <point x="312.0" y="1080.0" type="curve" smooth="yes"/>
      <point x="312.0" y="1126.5"/>
      <point x="276.0" y="1162.5"/>
      <point x="229.5" y="1162.5" type="curve" smooth="yes"/>
      <point x="184.0" y="1162.5"/>
      <point x="147.0" y="1126.5"/>
      <point x="147.0" y="1080.0" type="curve" smooth="yes"/>
      <point x="147.0" y="1034.5"/>
      <point x="184.0" y="997.5"/>
    </contour>
  </outline>
</glyph>
<glyph name="dieresiscomb.vertical.A" format="2">
  <anchor x="360.0" y="540.0" name="_top-vertical"/>
  <outline>
    <contour>
      <point x="311.0" y="343.5" type="curve" smooth="yes"/>
      <point x="354.0" y="343.5"/>
      <point x="387.5" y="377.0"/>
      <point x="387.5" y="420.0" type="curve" smooth="yes"/>
      <point x="387.5" y="462.0"/>
      <point x="354.0" y="496.5"/>
      <point x="311.0" y="496.5" type="curve" smooth="yes"/>
      <point x="269.0" y="496.5"/>
      <point x="234.5" y="462.0"/>
      <point x="234.5" y="420.0" type="curve" smooth="yes"/>
      <point x="234.5" y="377.0"/>
      <point x="269.0" y="343.5"/>
    </contour>
    <contour>
      <point x="409.0" y="583.5" type="curve" smooth="yes"/>
      <point x="452.0" y="583.5"/>
      <point x="485.5" y="617.0"/>
      <point x="485.5" y="660.0" type="curve" smooth="yes"/>
      <point x="485.5" y="702.0"/>
      <point x="452.0" y="736.5"/>
      <point x="409.0" y="736.5" type="curve" smooth="yes"/>
      <point x="367.0" y="736.5"/>
      <point x="332.5" y="702.0"/>
      <point x="332.5" y="660.0" type="curve" smooth="yes"/>
      <point x="332.5" y="617.0"/>
      <point x="367.0" y="583.5"/>
    </contour>
  </outline>
</glyph>
<glyph name="dieresiscomb_macroncomb" format="2">
  <anchor x="360.0" y="600.0" name="_top"/>
  <outline>
    <contour>
      <point x="234.0" y="700.5" type="curve" smooth="yes"/>
      <point x="279.0" y="700.5"/>
      <point x="313.5" y="736.0"/>
      <point x="313.5" y="780.0" type="curve" smooth="yes"/>
      <point x="313.5" y="825.0"/>
      <point x="279.0" y="859.5"/>
      <point x="234.0" y="859.5" type="curve" smooth="yes"/>
      <point x="190.0" y="859.5"/>
      <point x="154.5" y="825.0"/>
      <point x="154.5" y="780.0" type="curve" smooth="yes"/>
      <point x="154.5" y="736.0"/>
      <point x="190.0" y="700.5"/>
    </contour>
    <contour>
      <point x="486.0" y="700.5" type="curve" smooth="yes"/>
      <point x="531.0" y="700.5"/>
      <point x="565.5" y="736.0"/>
      <point x="565.5" y="780.0" type="curve" smooth="yes"/>
      <point x="565.5" y="825.0"/>
      <point x="531.0" y="859.5"/>
      <point x="486.0" y="859.5" type="curve" smooth="yes"/>
      <point x="442.0" y="859.5"/>
      <point x="406.5" y="825.0"/>
      <point x="406.5" y="780.0" type="curve" smooth="yes"/>
      <point x="406.5" y="736.0"/>
      <point x="442.0" y="700.5"/>
    </contour>
    <contour>
      <point x="183.0" y="929.5" type="line"/>
      <point x="537.0" y="929.5" type="line"/>
      <point x="537.0" y="1028.5" type="line"/>
      <point x="183.0" y="1028.5" type="line"/>
    </contour>
  </outline>
</glyph>
<glyph name="dotaccentcomb.case" format="2">
  <anchor x="360.0" y="900.0" name="_top"/>
  <outline>
    <contour>
      <point x="360.0" y="996.0" type="curve" smooth="yes"/>
      <point x="407.5" y="996.0"/>
      <point x="444.0" y="1033.5"/>
      <point x="444.0" y="1080.0" type="curve" smooth="yes"/>
      <point x="444.0" y="1127.5"/>
      <point x="407.5" y="1164.0"/>
      <point x="360.0" y="1164.0" type="curve" smooth="yes"/>
      <point x="313.5" y="1164.0"/>
      <point x="276.0" y="1127.5"/>
      <point x="276.0" y="1080.0" type="curve" smooth="yes"/>
      <point x="276.0" y="1033.5"/>
      <point x="313.5" y="996.0"/>
    </contour>
  </outline>
</glyph>
<glyph name="endash.titl.case" format="2">
  <advance width="720.0"/>
  <outline>
    <contour>
      <point x="60.0" y="418.5" type="line"/>
      <point x="660.0" y="418.5" type="line"/>
      <point x="660.0" y="481.5" type="line"/>
      <point x="60.0" y="481.5" type="line"/>
    </contour>
  </outline>
</glyph>
<glyph name="five.numr" format="2">
  <advance width="480.0"/>
  <outline>
    <contour>
      <point x="214.5" y="405.0" type="curve" smooth="yes"/>
      <point x="324.5" y="405.0"/>
      <point x="408.0" y="483.0"/>
      <point x="408.0" y="583.0" type="curve" smooth="yes"/>
      <point x="408.0" y="671.5"/>
      <point x="343.5" y="747.0"/>
      <point x="239.0" y="747.0" type="curve" smooth="yes"/>
      <point x="209.5" y="747.0"/>
      <point x="188.5" y="741.5"/>
      <point x="170.0" y="728.5" type="curve"/>
      <point x="211.0" y="692.0" type="line"/>
      <point x="211.0" y="806.0" type="line"/>
      <point x="376.5" y="806.0" type="line"/>
      <point x="376.5" y="900.0" type="line"/>
      <point x="119.0" y="900.0" type="line"/>
      <point x="119.0" y="624.0" type="line"/>
      <point x="143.0" y="650.0"/>
      <point x="171.5" y="665.5"/>
      <point x="210.0" y="665.5" type="curve" smooth="yes"/>
      <point x="264.5" y="665.5"/>
      <point x="299.0" y="630.0"/>
      <point x="299.0" y="585.0" type="curve" smooth="yes"/>
      <point x="299.0" y="539.5"/>
      <point x="263.5" y="505.0"/>
      <point x="210.0" y="505.0" type="curve" smooth="yes"/>
      <point x="157.0" y="505.0"/>
      <point x="118.0" y="541.0"/>
      <point x="108.5" y="586.0" type="curve"/>
      <point x="52.0" y="481.5" type="line"/>
      <point x="85.0" y="436.5"/>
      <point x="145.0" y="405.0"/>
    </contour>
  </outline>
</glyph>
<glyph name="fraction.titl" format="2">
  <advance width="120.0"/>
  <outline>
    <contour>
      <point x="-286.5" y="0.0" type="line"/>
      <point x="-211.5" y="0.0" type="line"/>
      <point x="406.5" y="900.0" type="line"/>
      <point x="331.5" y="900.0" type="line"/>
    </contour>
  </outline>
</glyph>
<glyph name="gravecomb.small" format="2">
  <anchor x="406.0" y="600.0" name="_top"/>
  <outline>
    <contour>
      <point x="370.0" y="630.0" type="line"/>
      <point x="454.0" y="630.0" type="line"/>
      <point x="378.0" y="780.0" type="line"/>
      <point x="266.0" y="780.0" type="line"/>
    </contour>
  </outline>
</glyph>
<glyph name="guilsinglleft.case" format="2">
  <advance width="360.0"/>
  <outline>
    <contour>
      <point x="190.5" y="210.0" type="line"/>
      <point x="325.5" y="210.0" type="line"/>
      <point x="163.5" y="450.0" type="line"/>
      <point x="325.5" y="690.0" type="line"/>
      <point x="190.5" y="690.0" type="line"/>
      <point x="28.5" y="450.0" type="line"/>
    </contour>
  </outline>
</glyph>
<glyph name="guilsinglright.case" format="2">
  <advance width="360.0"/>
  <outline>
    <contour>
      <point x="169.5" y="210.0" type="line"/>
      <point x="331.5" y="450.0" type="line"/>
      <point x="169.5" y="690.0" type="line"/>
      <point x="34.5" y="690.0" type="line"/>
      <point x="196.5" y="450.0" type="line"/>
      <point x="34.5" y="210.0" type="line"/>
    </contour>
  </outline>
</glyph>
<glyph name="h.hbar" format="2">
  <advance width="710.0"/>
  <anchor x="360.0" y="0.0" name="bottom"/>
  <anchor x="148.5" y="780.0" name="center"/>
  <anchor x="148.5" y="960.0" name="top"/>
  <outline>
    <contour>
      <point x="503.0" y="0.0" type="line"/>
      <point x="641.0" y="0.0" type="line"/>
      <point x="641.0" y="352.0" type="line" smooth="yes"/>
      <point x="641.0" y="519.5"/>
      <point x="525.5" y="616.0"/>
      <point x="398.5" y="616.0" type="curve" smooth="yes"/>
      <point x="270.0" y="616.0"/>
      <point x="161.0" y="520.5"/>
      <point x="161.0" y="348.0" type="curve"/>
      <point x="219.0" y="332.0" type="line"/>
      <point x="219.0" y="433.0"/>
      <point x="287.5" y="487.0"/>
      <point x="361.0" y="487.0" type="curve" smooth="yes"/>
      <point x="451.5" y="487.0"/>
      <point x="503.0" y="412.5"/>
      <point x="503.0" y="329.5" type="curve" smooth="yes"/>
    </contour>
    <contour>
      <point x="81.0" y="0.0" type="line"/>
      <point x="219.0" y="0.0" type="line"/>
      <point x="219.0" y="424.5" type="line"/>
      <point x="213.0" y="451.0" type="line"/>
      <point x="213.0" y="960.0" type="line"/>
      <point x="81.0" y="960.0" type="line"/>
    </contour>
  </outline>
</glyph>
<glyph name="hyphen.case" format="2">
  <advance width="370.0"/>
  <outline>
    <contour>
      <point x="30.0" y="390.0" type="line"/>
      <point x="340.0" y="390.0" type="line"/>
      <point x="340.0" y="510.0" type="line"/>
      <point x="30.0" y="510.0" type="line"/>
    </contour>
  </outline>
</glyph>
<glyph name="hyphen.titl" format="2">
  <advance width="360.0"/>
  <outline>
    <contour>
      <point x="30.0" y="269.5" type="line"/>
      <point x="330.0" y="269.5" type="line"/>
      <point x="330.0" y="330.5" type="line"/>
      <point x="30.0" y="330.5" type="line"/>
    </contour>
  </outline>
</glyph>
<glyph name="macroncomb.narrow" format="2">
  <anchor x="360.0" y="600.0" name="_top"/>
  <outline>
    <contour>
      <point x="210.0" y="729.0" type="line"/>
      <point x="510.0" y="729.0" type="line"/>
      <point x="510.0" y="831.0" type="line"/>
      <point x="210.0" y="831.0" type="line"/>
    </contour>
  </outline>
</glyph>
<glyph name="multiply.titl" format="2">
  <advance width="750.0"/>
  <outline>
    <contour>
      <point x="574.0" y="203.0" type="line"/>
      <point x="622.0" y="251.0" type="line"/>
      <point x="176.0" y="697.0" type="line"/>
      <point x="128.0" y="649.0" type="line"/>
    </contour>
    <contour>
      <point x="174.0" y="203.0" type="line"/>
      <point x="622.0" y="651.0" type="line"/>
      <point x="576.0" y="697.0" type="line"/>
      <point x="128.0" y="249.0" type="line"/>
    </contour>
  </outline>
</glyph>
<glyph name="nine.numr" format="2">
  <advance width="480.0"/>
  <outline>
    <contour>
      <point x="173.5" y="420.0" type="line"/>
      <point x="287.0" y="420.0" type="line"/>
      <point x="407.0" y="650.5" type="line" smooth="yes"/>
      <point x="420.0" y="676.0"/>
      <point x="428.5" y="707.0"/>
      <point x="428.5" y="736.5" type="curve" smooth="yes"/>
      <point x="428.5" y="837.0"/>
      <point x="343.5" y="915.0"/>
      <point x="240.0" y="915.0" type="curve" smooth="yes"/>
      <point x="136.5" y="915.0"/>
      <point x="51.5" y="837.5"/>
      <point x="51.5" y="737.0" type="curve" smooth="yes"/>
      <point x="51.5" y="638.5"/>
      <point x="131.0" y="566.0"/>
      <point x="226.5" y="566.0" type="curve" smooth="yes"/>
      <point x="251.5" y="566.0"/>
      <point x="279.5" y="572.0"/>
      <point x="302.0" y="594.5" type="curve"/>
      <point x="273.5" y="600.0" type="line"/>
    </contour>
    <contour>
      <point x="240.0" y="655.0" type="curve" smooth="yes"/>
      <point x="193.5" y="655.0"/>
      <point x="157.5" y="692.5"/>
      <point x="157.5" y="738.5" type="curve" smooth="yes"/>
      <point x="157.5" y="783.5"/>
      <point x="194.0" y="820.0"/>
      <point x="240.0" y="820.0" type="curve" smooth="yes"/>
      <point x="286.5" y="820.0"/>
      <point x="322.5" y="783.5"/>
      <point x="322.5" y="738.5" type="curve" smooth="yes"/>
      <point x="322.5" y="692.5"/>
      <point x="286.5" y="655.0"/>
    </contour>
  </outline>
</glyph>
<glyph name="o.slash" format="2">
  <advance width="730.0"/>
  <anchor x="365.0" y="0.0" name="bottom"/>
  <anchor x="365.0" y="300.0" name="center"/>
  <anchor x="528.5" y="5.0" name="ogonek"/>
  <anchor x="365.0" y="600.0" name="top"/>
  <anchor x="635.5" y="600.0" name="topright"/>
  <outline>
    <contour>
      <point x="365.0" y="-16.0" type="curve" smooth="yes"/>
      <point x="542.0" y="-16.0"/>
      <point x="685.0" y="125.0"/>
      <point x="685.0" y="300.0" type="curve" smooth="yes"/>
      <point x="685.0" y="475.0"/>
      <point x="542.0" y="616.0"/>
      <point x="365.0" y="616.0" type="curve" smooth="yes"/>
      <point x="188.0" y="616.0"/>
      <point x="45.0" y="475.0"/>
      <point x="45.0" y="300.0" type="curve" smooth="yes"/>
      <point x="45.0" y="125.0"/>
      <point x="188.0" y="-16.0"/>
    </contour>
    <contour>
      <point x="365.0" y="107.0" type="curve" smooth="yes"/>
      <point x="259.0" y="107.0"/>
      <point x="174.5" y="193.5"/>
      <point x="174.5" y="300.0" type="curve" smooth="yes"/>
      <point x="174.5" y="406.5"/>
      <point x="259.0" y="493.0"/>
      <point x="365.0" y="493.0" type="curve" smooth="yes"/>
      <point x="470.0" y="493.0"/>
      <point x="555.5" y="406.5"/>
      <point x="555.5" y="300.0" type="curve" smooth="yes"/>
      <point x="555.5" y="193.5"/>
      <point x="470.0" y="107.0"/>
    </contour>
  </outline>
</glyph>
<glyph name="one.numr" format="2">
  <advance width="480.0"/>
  <outline>
    <contour>
      <point x="241.5" y="769.0" type="line"/>
      <point x="219.0" y="778.5" type="line"/>
      <point x="219.0" y="420.0" type="line"/>
      <point x="333.0" y="420.0" type="line"/>
      <point x="333.0" y="926.0" type="line"/>
      <point x="105.0" y="812.0" type="line"/>
      <point x="105.0" y="701.0" type="line"/>
    </contour>
  </outline>
</glyph>
<glyph name="periodcentered.loclCAT" format="2">
  <advance width="360.0"/>
  <anchor x="180.0" y="450.0" name="_periodcentered"/>
  <outline>
    <contour>
      <point x="180.0" y="367.5" type="curve" smooth="yes"/>
      <point x="227.0" y="367.5"/>
      <point x="262.5" y="404.0"/>
      <point x="262.5" y="450.0" type="curve" smooth="yes"/>
      <point x="262.5" y="497.0"/>
      <point x="227.0" y="532.5"/>
      <point x="180.0" y="532.5" type="curve" smooth="yes"/>
      <point x="134.0" y="532.5"/>
      <point x="97.5" y="497.0"/>
      <point x="97.5" y="450.0" type="curve" smooth="yes"/>
      <point x="97.5" y="404.0"/>
      <point x="134.0" y="367.5"/>
    </contour>
  </outline>
</glyph>
<glyph name="registered.lf" format="2">
  <advance width="1260.0"/>
  <outline>
    <contour>
      <point x="630.0" y="-192.0" type="curve" smooth="yes"/>
      <point x="938.0" y="-192.0"/>
      <point x="1188.0" y="55.0"/>
      <point x="1188.0" y="360.0" type="curve" smooth="yes"/>
      <point x="1188.0" y="665.0"/>
      <point x="938.0" y="912.0"/>
      <point x="630.0" y="912.0" type="curve" smooth="yes"/>
      <point x="322.0" y="912.0"/>
      <point x="72.0" y="665.0"/>
      <point x="72.0" y="360.0" type="curve" smooth="yes"/>
      <point x="72.0" y="55.0"/>
      <point x="322.0" y="-192.0"/>
    </contour>
    <contour>
      <point x="630.0" y="-81.0" type="curve" smooth="yes"/>
      <point x="386.5" y="-81.0"/>
      <point x="189.0" y="116.5"/>
      <point x="189.0" y="360.0" type="curve" smooth="yes"/>
      <point x="189.0" y="603.5"/>
      <point x="386.5" y="801.0"/>
      <point x="630.0" y="801.0" type="curve" smooth="yes"/>
      <point x="873.5" y="801.0"/>
      <point x="1071.0" y="603.5"/>
      <point x="1071.0" y="360.0" type="curve" smooth="yes"/>
      <point x="1071.0" y="116.5"/>
      <point x="873.5" y="-81.0"/>
    </contour>
    <contour>
      <point x="427.0" y="90.0" type="line"/>
      <point x="553.0" y="90.0" type="line"/>
      <point x="553.0" y="630.0" type="line"/>
      <point x="427.0" y="630.0" type="line"/>
    </contour>
    <contour>
      <point x="756.0" y="90.0" type="line"/>
      <point x="903.0" y="90.0" type="line"/>
      <point x="728.5" y="339.5" type="line"/>
      <point x="583.5" y="339.5" type="line"/>
    </contour>
    <contour>
      <point x="493.0" y="261.0" type="line"/>
      <point x="641.0" y="261.0" type="line" smooth="yes"/>
      <point x="767.0" y="261.0"/>
      <point x="851.0" y="339.5"/>
      <point x="851.0" y="444.0" type="curve" smooth="yes"/>
      <point x="851.0" y="545.0"/>
      <point x="771.5" y="630.0"/>
      <point x="641.0" y="630.0" type="curve" smooth="yes"/>
      <point x="493.0" y="630.0" type="line"/>
      <point x="493.0" y="525.5" type="line"/>
      <point x="629.5" y="525.5" type="line" smooth="yes"/>
      <point x="687.5" y="525.5"/>
      <point x="725.0" y="492.5"/>
      <point x="725.0" y="444.0" type="curve" smooth="yes"/>
      <point x="725.0" y="402.5"/>
      <point x="694.5" y="360.5"/>
      <point x="629.5" y="360.5" type="curve" smooth="yes"/>
      <point x="493.0" y="360.5" type="line"/>
    </contour>
  </outline>
</glyph>
<glyph name="six.numr" format="2">
  <advance width="480.0"/>
  <outline>
    <contour>
      <point x="240.0" y="405.0" type="curve" smooth="yes"/>
      <point x="345.0" y="405.0"/>
      <point x="431.5" y="483.0"/>
      <point x="431.5" y="584.5" type="curve" smooth="yes"/>
      <point x="431.5" y="684.0"/>
      <point x="350.5" y="757.0"/>
      <point x="253.5" y="757.0" type="curve" smooth="yes"/>
      <point x="228.5" y="757.0"/>
      <point x="200.0" y="751.0"/>
      <point x="177.0" y="728.5" type="curve"/>
      <point x="205.5" y="720.0" type="line"/>
      <point x="305.5" y="900.0" type="line"/>
      <point x="193.0" y="900.0" type="line"/>
      <point x="70.5" y="672.0" type="line" smooth="yes"/>
      <point x="57.0" y="646.0"/>
      <point x="48.5" y="615.0"/>
      <point x="48.5" y="585.0" type="curve" smooth="yes"/>
      <point x="48.5" y="483.5"/>
      <point x="135.0" y="405.0"/>
    </contour>
    <contour>
      <point x="240.0" y="500.0" type="curve" smooth="yes"/>
      <point x="192.0" y="500.0"/>
      <point x="154.5" y="538.5"/>
      <point x="154.5" y="584.5" type="curve" smooth="yes"/>
      <point x="154.5" y="632.0"/>
      <point x="192.0" y="671.0"/>
      <point x="240.0" y="671.0" type="curve" smooth="yes"/>
      <point x="288.0" y="671.0"/>
      <point x="325.5" y="632.0"/>
      <point x="325.5" y="584.5" type="curve" smooth="yes"/>
      <point x="325.5" y="538.5"/>
      <point x="287.0" y="500.0"/>
    </contour>
  </outline>
</glyph>
<glyph name="tildecomb_macroncomb" format="2">
  <anchor x="360.0" y="600.0" name="_top"/>
  <outline>
    <contour>
      <point x="196.0" y="691.5" type="line"/>
      <point x="213.0" y="733.5"/>
      <point x="240.5" y="758.0"/>
      <point x="280.0" y="758.0" type="curve" smooth="yes"/>
      <point x="331.5" y="758.0"/>
      <point x="381.0" y="710.5"/>
      <point x="443.0" y="710.5" type="curve" smooth="yes"/>
      <point x="492.0" y="710.5"/>
      <point x="533.5" y="737.0"/>
      <point x="557.5" y="784.5" type="curve"/>
      <point x="524.0" y="879.5" type="line"/>
      <point x="507.0" y="838.0"/>
      <point x="479.5" y="813.5"/>
      <point x="440.5" y="813.5" type="curve" smooth="yes"/>
      <point x="388.5" y="813.5"/>
      <point x="339.5" y="861.5"/>
      <point x="277.0" y="861.5" type="curve" smooth="yes"/>
      <point x="228.5" y="861.5"/>
      <point x="187.0" y="835.5"/>
      <point x="162.5" y="787.5" type="curve"/>
    </contour>
    <contour>
      <point x="183.0" y="929.5" type="line"/>
      <point x="537.0" y="929.5" type="line"/>
      <point x="537.0" y="1028.5" type="line"/>
      <point x="183.0" y="1028.5" type="line"/>
    </contour>
  </outline>
</glyph>
<glyph name="two.lf" format="2">
  <advance width="690.0"/>
  <outline>
    <contour>
      <point x="72.5" y="0.0" type="line"/>
      <point x="632.5" y="0.0" type="line"/>
      <point x="632.5" y="132.0" type="line"/>
      <point x="240.0" y="132.0" type="line"/>
      <point x="281.0" y="77.5" type="line"/>
      <point x="550.5" y="463.5" type="line" smooth="yes"/>
      <point x="598.5" y="532.5"/>
      <point x="618.5" y="585.0"/>
      <point x="618.5" y="645.5" type="curve" smooth="yes"/>
      <point x="618.5" y="796.5"/>
      <point x="490.5" y="916.0"/>
      <point x="337.0" y="916.0" type="curve" smooth="yes"/>
      <point x="181.0" y="916.0"/>
      <point x="57.5" y="794.0"/>
      <point x="57.5" y="646.0" type="curve" smooth="yes"/>
      <point x="57.5" y="604.0"/>
      <point x="68.0" y="565.0"/>
      <point x="89.0" y="526.0" type="curve"/>
      <point x="255.5" y="526.0" type="line"/>
      <point x="215.5" y="559.0"/>
      <point x="195.5" y="600.5"/>
      <point x="195.5" y="645.5" type="curve" smooth="yes"/>
      <point x="195.5" y="722.5"/>
      <point x="256.5" y="784.0"/>
      <point x="336.0" y="784.0" type="curve" smooth="yes"/>
      <point x="415.5" y="784.0"/>
      <point x="477.5" y="722.5"/>
      <point x="477.5" y="645.5" type="curve" smooth="yes"/>
      <point x="477.5" y="616.5"/>
      <point x="468.0" y="585.0"/>
      <point x="436.0" y="537.0" type="curve" smooth="yes"/>
    </contour>
  </outline>
</glyph>
<glyph name="two.numr" format="2">
  <advance width="480.0"/>
  <outline>
    <contour>
      <point x="57.5" y="420.0" type="line"/>
      <point x="424.5" y="420.0" type="line"/>
      <point x="424.5" y="517.0" type="line"/>
      <point x="316.5" y="517.0" type="line"/>
      <point x="275.0" y="517.0"/>
      <point x="240.0" y="514.5"/>
      <point x="195.5" y="511.0" type="curve"/>
      <point x="208.5" y="480.5" type="line"/>
      <point x="260.5" y="528.0"/>
      <point x="303.0" y="575.5"/>
      <point x="341.0" y="623.0" type="curve" smooth="yes"/>
      <point x="382.5" y="674.0"/>
      <point x="400.0" y="711.5"/>
      <point x="400.0" y="753.0" type="curve" smooth="yes"/>
      <point x="400.0" y="842.5"/>
      <point x="326.0" y="915.0"/>
      <point x="228.0" y="915.0" type="curve" smooth="yes"/>
      <point x="130.0" y="915.0"/>
      <point x="55.5" y="845.0"/>
      <point x="55.5" y="752.5" type="curve" smooth="yes"/>
      <point x="55.5" y="730.5"/>
      <point x="59.5" y="714.5"/>
      <point x="67.0" y="696.0" type="curve"/>
      <point x="182.0" y="696.0" type="line"/>
      <point x="168.5" y="713.5"/>
      <point x="162.5" y="730.0"/>
      <point x="162.5" y="749.0" type="curve" smooth="yes"/>
      <point x="162.5" y="788.0"/>
      <point x="188.0" y="815.0"/>
      <point x="227.0" y="815.0" type="curve" smooth="yes"/>
      <point x="265.0" y="815.0"/>
      <point x="291.0" y="788.5"/>
      <point x="291.0" y="751.5" type="curve" smooth="yes"/>
      <point x="291.0" y="730.0"/>
      <point x="284.0" y="710.5"/>
      <point x="257.0" y="675.5" type="curve" smooth="yes"/>
    </contour>
  </outline>
</glyph>
<glyph name="underscore.titl" format="2">
  <advance width="720.0"/>
  <outline>
    <contour>
      <point x="-6.0" y="-184.5" type="line"/>
      <point x="726.0" y="-184.5" type="line"/>
      <point x="726.0" y="-121.5" type="line"/>
      <point x="-6.0" y="-121.5" type="line"/>
    </contour>
  </outline>
</glyph>
<glyph name="zero.lf.ss01" format="2">
  <advance width="1060.0"/>
  <outline>
    <contour>
      <point x="530.0" y="-18.0" type="curve" smooth="yes"/>
      <point x="791.5" y="-18.0"/>
      <point x="1003.0" y="191.0"/>
      <point x="1003.0" y="450.0" type="curve" smooth="yes"/>
      <point x="1003.0" y="709.0"/>
      <point x="791.5" y="918.0"/>
      <point x="530.0" y="918.0" type="curve" smooth="yes"/>
      <point x="268.5" y="918.0"/>
      <point x="57.0" y="709.0"/>
      <point x="57.0" y="450.0" type="curve" smooth="yes"/>
      <point x="57.0" y="191.0"/>
      <point x="268.5" y="-18.0"/>
    </contour>
    <contour>
      <point x="530.0" y="123.0" type="curve" smooth="yes"/>
      <point x="350.0" y="123.0"/>
      <point x="210.0" y="269.0"/>
      <point x="210.0" y="450.0" type="curve" smooth="yes"/>
      <point x="210.0" y="631.0"/>
      <point x="350.0" y="777.0"/>
      <point x="530.0" y="777.0" type="curve" smooth="yes"/>
      <point x="710.0" y="777.0"/>
      <point x="850.0" y="631.0"/>
      <point x="850.0" y="450.0" type="curve" smooth="yes"/>
      <point x="850.0" y="269.0"/>
      <point x="710.0" y="123.0"/>
    </contour>
  </outline>
</glyph>
<glyph name="zero.numr" format="2">
  <advance width="480.0"/>
  <outline>
    <contour>
      <point x="240.0" y="408.0" type="curve" smooth="yes"/>
      <point x="373.0" y="408.0"/>
      <point x="438.0" y="533.5"/>
      <point x="438.0" y="660.0" type="curve" smooth="yes"/>
      <point x="438.0" y="787.0"/>
      <point x="373.0" y="912.0"/>
      <point x="240.0" y="912.0" type="curve" smooth="yes"/>
      <point x="107.0" y="912.0"/>
      <point x="42.0" y="787.0"/>
      <point x="42.0" y="660.0" type="curve" smooth="yes"/>
      <point x="42.0" y="533.5"/>
      <point x="107.0" y="408.0"/>
    </contour>
    <contour>
      <point x="240.0" y="508.0" type="curve" smooth="yes"/>
      <point x="177.0" y="508.0"/>
      <point x="153.0" y="585.0"/>
      <point x="153.0" y="660.0" type="curve" smooth="yes"/>
      <point x="153.0" y="735.0"/>
      <point x="177.0" y="812.0"/>
      <point x="240.0" y="812.0" type="curve" smooth="yes"/>
      <point x="303.0" y="812.0"/>
      <point x="327.0" y="735.0"/>
      <point x="327.0" y="660.0" type="curve" smooth="yes"/>
      <point x="327.0" y="585.0"/>
      <point x="303.0" y="508.0"/>
    </contour>
  </outline>
</glyph>
